<svg width="141" height="70" viewBox="0 0 141 70" fill="none" xmlns="http://www.w3.org/2000/svg">
<g opacity="0.4">
<path d="M37.776 56.104C36.688 55.88 36 55.432 35.712 54.76C35.456 54.12 35.296 53.4 35.232 52.6L34.896 51.64C34.736 51.096 34.656 50.504 34.656 49.864C34.656 48.648 34.832 47.208 35.184 45.544C35.536 43.88 35.968 42.168 36.48 40.408C37.024 38.648 37.568 36.984 38.112 35.416C38.688 33.848 39.184 32.536 39.6 31.48C40.016 30.424 40.288 29.784 40.416 29.56C39.968 30.008 39.264 30.696 38.304 31.624C37.344 32.52 36.272 33.56 35.088 34.744C33.904 35.896 32.736 37.064 31.584 38.248C30.464 39.432 29.488 40.536 28.656 41.56C27.824 42.584 27.28 43.416 27.024 44.056C26.416 43.992 25.936 43.656 25.584 43.048C25.264 42.408 25.104 41.8 25.104 41.224C25.104 40.776 25.328 40.04 25.776 39.016C26.256 37.96 26.848 36.792 27.552 35.512C28.256 34.2 28.976 32.92 29.712 31.672C30.48 30.392 31.168 29.256 31.776 28.264C32.416 27.272 32.88 26.584 33.168 26.2C33.168 26.2 32.832 26.472 32.16 27.016C31.52 27.56 30.672 28.28 29.616 29.176C28.56 30.04 27.392 31.016 26.112 32.104C24.832 33.16 23.536 34.248 22.224 35.368C20.944 36.456 19.728 37.512 18.576 38.536C17.456 39.528 16.528 40.392 15.792 41.128C15.76 41.192 15.936 41.08 16.32 40.792C16.704 40.472 17.184 40.072 17.76 39.592C18.368 39.08 18.96 38.584 19.536 38.104C20.144 37.624 20.64 37.224 21.024 36.904C21.408 36.584 21.584 36.456 21.552 36.52C19.856 38.088 18.512 39.304 17.52 40.168C16.56 41.032 15.808 41.736 15.264 42.28C15.008 42.536 14.704 42.952 14.352 43.528C14.032 44.104 13.76 44.712 13.536 45.352C13.312 45.992 13.2 46.6 13.2 47.176C13.2 47.784 13.36 48.232 13.68 48.52C13.84 48.648 13.968 48.776 14.064 48.904C14.16 49.032 14.208 49.144 14.208 49.24C14.208 49.4 14.032 49.48 13.68 49.48C12.944 49.416 12.304 49.144 11.76 48.664C11.216 48.184 10.8 47.656 10.512 47.08C10.224 46.472 10.08 45.944 10.08 45.496C10.08 44.952 10.4 44.088 11.04 42.904C11.68 41.72 12.512 40.344 13.536 38.776C14.592 37.176 15.728 35.512 16.944 33.784C18.16 32.056 19.376 30.376 20.592 28.744C21.808 27.112 22.896 25.656 23.856 24.376C24.816 23.064 25.552 22.072 26.064 21.4C25.424 21.912 24.896 22.472 24.48 23.08C24.096 23.656 23.744 23.976 23.424 24.04C23.808 23.592 24.32 23 24.96 22.264C25.6 21.528 26 20.856 26.16 20.248C25.904 20.184 25.616 20.152 25.296 20.152C24.976 20.152 24.64 20.152 24.288 20.152C22.784 20.152 20.96 20.28 18.816 20.536C16.672 20.792 14.64 21.128 12.72 21.544C12.4 21.608 11.856 21.784 11.088 22.072C10.32 22.328 9.44 22.664 8.448 23.08C7.488 23.496 6.528 23.976 5.568 24.52C4.608 25.064 3.776 25.656 3.072 26.296C2.4 26.904 1.968 27.544 1.776 28.216C1.904 28.472 1.968 28.712 1.968 28.936C1.968 29.384 1.744 29.608 1.296 29.608C0.912 29.608 0.496 29.384 0.048 28.936C-0.4 28.488 -0.624 27.864 -0.624 27.064C-0.624 26.648 -0.56 26.248 -0.432 25.864C-0.112 24.84 0.448 23.944 1.248 23.176C2.048 22.408 2.976 21.736 4.032 21.16C5.12 20.584 6.24 20.104 7.392 19.72C8.544 19.336 9.632 19.032 10.656 18.808C11.68 18.552 12.944 18.36 14.448 18.232C15.952 18.104 17.52 18.04 19.152 18.04C20.4 18.04 21.648 18.088 22.896 18.184C24.144 18.28 25.312 18.44 26.4 18.664V18.52C26.4 18.296 26.528 18.184 26.784 18.184C26.848 18.184 27.008 18.216 27.264 18.28C27.648 18.408 28.144 18.632 28.752 18.952C29.36 19.272 29.888 19.656 30.336 20.104C30.816 20.52 31.056 20.968 31.056 21.448C31.056 21.608 31.04 21.736 31.008 21.832C29.952 22.952 28.752 24.28 27.408 25.816C26.096 27.352 24.752 28.984 23.376 30.712C22 32.408 20.672 34.136 19.392 35.896C20.512 34.936 21.76 33.864 23.136 32.68C24.544 31.464 25.952 30.264 27.36 29.08C28.8 27.896 30.112 26.808 31.296 25.816C32.512 24.824 33.472 24.056 34.176 23.512C34.496 23.512 34.912 23.672 35.424 23.992C35.968 24.312 36.448 24.68 36.864 25.096C37.312 25.512 37.536 25.896 37.536 26.248C37.248 26.728 36.832 27.368 36.288 28.168C35.744 28.968 35.168 29.816 34.56 30.712C33.952 31.608 33.36 32.472 32.784 33.304C32.208 34.136 31.728 34.84 31.344 35.416C31.472 35.32 31.856 34.936 32.496 34.264C33.168 33.592 33.968 32.792 34.896 31.864C35.856 30.936 36.816 30.024 37.776 29.128C38.768 28.2 39.632 27.432 40.368 26.824C41.136 26.184 41.632 25.848 41.856 25.816C42.016 25.816 42.304 25.976 42.72 26.296C43.136 26.584 43.568 26.952 44.016 27.4C44.464 27.848 44.816 28.28 45.072 28.696C45.36 29.08 45.456 29.352 45.36 29.512C43.92 31.4 42.672 33.432 41.616 35.608C40.592 37.784 39.728 39.912 39.024 41.992C39.568 40.648 40.128 39.32 40.704 38.008C41.28 36.696 41.84 35.496 42.384 34.408C42.96 33.32 43.44 32.456 43.824 31.816C43.888 31.752 43.92 31.72 43.92 31.72C43.952 31.72 43.936 31.816 43.872 32.008C43.808 32.2 43.696 32.424 43.536 32.68C43.344 33 43.024 33.64 42.576 34.6C42.16 35.56 41.68 36.696 41.136 38.008C40.592 39.32 40.048 40.664 39.504 42.04C38.992 43.416 38.528 44.728 38.112 45.976C37.728 47.192 37.472 48.184 37.344 48.952C37.12 50.04 36.96 50.792 36.864 51.208C36.8 51.656 36.752 51.688 36.72 51.304L36.576 52.552C37.056 52.616 37.504 52.696 37.92 52.792C38.368 52.92 38.592 53.016 38.592 53.08C39.488 53.208 40.144 53.4 40.56 53.656C40.976 53.944 41.184 54.232 41.184 54.52C41.184 54.84 40.896 55.144 40.32 55.432C39.744 55.752 38.896 55.976 37.776 56.104ZM36.72 51.208C36.912 50.088 37.184 48.728 37.536 47.128C37.92 45.528 38.416 43.816 39.024 41.992C38.416 43.592 37.888 45.128 37.44 46.6C37.024 48.072 36.8 49.304 36.768 50.296C36.736 50.488 36.72 50.664 36.72 50.824C36.72 50.984 36.72 51.112 36.72 51.208ZM45.4114 49.816C45.2194 49.816 44.9154 49.592 44.4994 49.144C44.1154 48.728 43.7154 48.264 43.2994 47.752C42.9154 47.208 42.6274 46.808 42.4354 46.552C42.7234 45.304 43.2194 44.008 43.9234 42.664C44.6594 41.288 45.5074 39.944 46.4674 38.632C47.4274 37.32 48.3874 36.104 49.3474 34.984C50.3394 33.864 51.2034 32.92 51.9394 32.152C51.3954 32.568 50.8194 33.112 50.2114 33.784C49.6034 34.424 49.1874 34.856 48.9634 35.08C48.5794 35.464 48.1954 35.848 47.8114 36.232C47.4274 36.584 47.0754 36.936 46.7554 37.288C47.7154 36.104 48.6594 35.016 49.5874 34.024C50.5474 33.032 51.2354 32.376 51.6514 32.056C51.7474 31.96 51.8754 31.848 52.0354 31.72C52.2274 31.592 52.4354 31.512 52.6594 31.48L53.0434 31.048C53.9074 31.08 54.8354 31.352 55.8274 31.864C56.8194 32.344 57.6674 32.984 58.3714 33.784C59.1074 34.552 59.4914 35.432 59.5234 36.424C59.5234 36.552 59.4594 36.68 59.3314 36.808C59.2034 36.904 59.1074 36.84 59.0434 36.616C58.8194 36.136 58.5634 35.704 58.2754 35.32C57.9874 34.936 57.6674 34.632 57.3154 34.408C56.9954 34.216 56.6594 34.12 56.3074 34.12C55.9234 34.12 55.5714 34.248 55.2514 34.504C54.6114 34.984 53.8434 35.704 52.9474 36.664C52.0834 37.592 51.2034 38.6 50.3074 39.688C49.4434 40.776 48.6594 41.832 47.9554 42.856C47.2834 43.88 46.8194 44.728 46.5634 45.4C46.7554 45.176 47.0914 44.856 47.5714 44.44C48.0514 44.024 48.5634 43.608 49.1074 43.192C49.6514 42.744 50.1154 42.376 50.4994 42.088C50.6274 41.992 50.8994 41.8 51.3154 41.512C51.7314 41.224 52.1634 40.92 52.6114 40.6C53.0914 40.28 53.4754 40.04 53.7634 39.88C53.7634 39.944 53.5714 40.12 53.1874 40.408C52.8354 40.696 52.4034 41.016 51.8914 41.368C51.3794 41.72 50.8994 42.04 50.4514 42.328C50.0354 42.616 49.7794 42.808 49.6834 42.904C49.3314 43.224 48.9154 43.592 48.4354 44.008C47.9874 44.424 47.5714 44.808 47.1874 45.16C46.8034 45.512 46.5474 45.768 46.4194 45.928C46.3554 46.056 46.3394 46.136 46.3714 46.168C46.4034 46.2 46.4674 46.152 46.5634 46.024C46.8514 45.608 47.2834 45.16 47.8594 44.68C48.4354 44.2 49.0594 43.72 49.7314 43.24C50.4354 42.728 51.0594 42.264 51.6034 41.848C52.2434 41.368 52.8194 40.952 53.3314 40.6C53.8754 40.216 54.3554 39.864 54.7714 39.544C54.8034 38.872 55.0434 38.408 55.4914 38.152C55.9714 37.896 56.3394 37.816 56.5954 37.912C56.7874 37.976 57.0754 38.104 57.4594 38.296C57.8754 38.456 58.2434 38.664 58.5634 38.92C58.8834 39.144 58.9794 39.4 58.8514 39.688C58.6274 40.2 58.4514 41 58.3234 42.088C58.2274 43.144 58.1794 44.12 58.1794 45.016C58.1794 46.296 58.5794 46.936 59.3794 46.936C59.7954 46.936 60.3554 46.712 61.0594 46.264C61.3154 46.104 61.5074 46.024 61.6354 46.024C61.7314 46.024 61.7794 46.072 61.7794 46.168C61.7794 46.296 61.6994 46.488 61.5394 46.744C61.3794 46.968 61.2674 47.112 61.2034 47.176C60.8194 47.592 60.3554 47.976 59.8114 48.328C59.2994 48.648 58.7714 48.808 58.2274 48.808C58.0034 48.808 57.7794 48.776 57.5554 48.712C57.3314 48.648 57.1074 48.536 56.8834 48.376C56.0834 47.832 55.5074 47 55.1554 45.88C54.8354 44.76 54.6754 43.8 54.6754 43C54.6754 42.808 54.6754 42.632 54.6754 42.472C54.7074 42.312 54.7394 42.168 54.7714 42.04C54.4194 42.328 53.8274 42.824 52.9954 43.528C52.1954 44.2 51.2994 44.968 50.3074 45.832C49.3154 46.664 48.3714 47.448 47.4754 48.184C46.5794 48.92 45.8914 49.464 45.4114 49.816ZM64.3343 50.44C64.1423 50.44 63.8543 50.344 63.4703 50.152C63.0863 49.992 62.7343 49.768 62.4143 49.48C62.1263 49.192 61.9823 48.92 61.9823 48.664C61.9823 48.504 62.0623 48.296 62.2223 48.04L62.2703 47.944C61.8223 47.336 61.5663 46.872 61.5023 46.552C61.8863 45.144 62.5103 43.72 63.3743 42.28C64.2383 40.808 65.1663 39.4 66.1583 38.056C65.6463 38.568 65.1663 39.096 64.7183 39.64C64.3023 40.152 63.9343 40.568 63.6143 40.888C64.1583 40.056 64.8623 39.176 65.7263 38.248C66.5903 37.32 67.3743 36.456 68.0783 35.656C67.7583 36.04 67.4383 36.424 67.1183 36.808C66.7983 37.192 66.4783 37.608 66.1583 38.056C66.3503 37.864 66.5263 37.672 66.6863 37.48C66.8783 37.288 67.0703 37.112 67.2623 36.952C67.4543 36.76 67.7583 36.44 68.1743 35.992C68.6223 35.544 69.1023 35.048 69.6143 34.504C70.1583 33.96 70.6543 33.464 71.1023 33.016C71.5823 32.568 71.9503 32.264 72.2063 32.104C72.6223 31.816 72.7183 31.672 72.4943 31.672C72.3343 31.672 72.0623 31.832 71.6783 32.152C71.3263 32.472 70.9743 32.808 70.6223 33.16C70.3023 33.512 70.0943 33.736 69.9983 33.832L68.0783 35.656C69.0063 34.6 69.8703 33.656 70.6703 32.824C71.5023 31.96 72.1903 31.272 72.7343 30.76C73.4063 30.792 74.1423 30.968 74.9423 31.288C75.7423 31.576 76.4303 32.008 77.0063 32.584C77.9983 33.512 78.5903 34.488 78.7823 35.512C79.9023 33.944 81.0383 32.36 82.1903 30.76C83.3743 29.128 84.4943 27.592 85.5503 26.152C86.6383 24.712 87.5823 23.464 88.3823 22.408C89.1823 21.32 89.7583 20.52 90.1103 20.008C90.0143 19.848 89.9183 19.704 89.8223 19.576C89.7263 19.448 89.6783 19.336 89.6783 19.24C89.6783 19.048 89.9503 18.968 90.4943 19C90.9423 19.032 91.4543 19.224 92.0303 19.576C92.6383 19.928 93.1503 20.328 93.5663 20.776C93.9823 21.192 94.1263 21.576 93.9983 21.928C93.6143 22.312 92.9903 22.984 92.1263 23.944C91.2623 24.904 90.2383 26.04 89.0543 27.352C87.9023 28.664 86.6863 30.072 85.4062 31.576C84.1263 33.048 82.8783 34.504 81.6623 35.944C81.4703 36.168 81.1503 36.6 80.7023 37.24C80.2543 37.88 79.7423 38.648 79.1663 39.544C78.5903 40.408 78.0303 41.336 77.4863 42.328C76.9743 43.288 76.5423 44.232 76.1903 45.16C75.8383 46.056 75.6623 46.824 75.6623 47.464C75.6623 48.328 75.9663 48.84 76.5743 49C76.9903 49.128 77.1983 49.256 77.1983 49.384C77.1983 49.544 76.9743 49.624 76.5263 49.624C76.1743 49.624 75.7903 49.56 75.3743 49.432C74.6063 49.208 74.0623 48.84 73.7422 48.328C73.4543 47.784 73.3103 47.192 73.3103 46.552C73.3103 45.592 73.5183 44.6 73.9343 43.576C74.3823 42.52 74.7983 41.64 75.1823 40.936C74.1903 41.864 73.0863 42.904 71.8703 44.056C70.6543 45.176 69.4863 46.216 68.3663 47.176C68.4303 47.176 68.4943 47.208 68.5583 47.272C68.6863 47.336 68.5743 47.544 68.2223 47.896C67.9023 48.216 67.4703 48.584 66.9263 49C66.3823 49.384 65.8543 49.72 65.3423 50.008C64.8623 50.296 64.5263 50.44 64.3343 50.44ZM66.0623 46.696C66.5103 46.408 67.1343 45.976 67.9343 45.4C68.7343 44.792 69.6303 44.104 70.6223 43.336C71.6463 42.536 72.6863 41.704 73.7422 40.84C74.7983 39.944 75.7743 39.096 76.6703 38.296C76.5423 38.232 76.4783 38.088 76.4783 37.864C76.4783 37.64 76.5423 37.4 76.6703 37.144C76.9583 36.6 77.1663 36.12 77.2943 35.704C77.4223 35.288 77.4863 34.92 77.4863 34.6C77.4863 33.832 77.1823 33.448 76.5743 33.448C76.0943 33.448 75.5503 33.688 74.9423 34.168C74.3983 34.584 73.7103 35.224 72.8783 36.088C72.0463 36.92 71.1823 37.864 70.2863 38.92C69.4223 39.944 68.6063 40.968 67.8383 41.992C67.1023 42.984 66.5263 43.88 66.1103 44.68C65.7263 45.448 65.5983 46.008 65.7263 46.36L72.9743 41.032C73.0383 40.968 73.0863 40.92 73.1183 40.888C73.1823 40.856 73.2143 40.84 73.2143 40.84C73.2463 40.84 73.1823 40.936 73.0223 41.128C72.8623 41.288 72.7023 41.448 72.5423 41.608C72.0943 41.96 71.4543 42.456 70.6223 43.096C69.7903 43.704 68.9423 44.328 68.0783 44.968C67.2463 45.576 66.5423 46.12 65.9663 46.6C65.8383 46.696 65.7743 46.76 65.7743 46.792C65.8063 46.824 65.9023 46.792 66.0623 46.696ZM86.4319 49.336C85.7279 49.336 84.9759 49.064 84.1759 48.52C83.3759 47.976 82.6879 47.336 82.1119 46.6C81.5679 45.864 81.2959 45.192 81.2959 44.584C81.2959 43.432 81.6319 42.2 82.3039 40.888C83.0079 39.544 83.9039 38.232 84.9919 36.952C86.1119 35.672 87.2959 34.536 88.5439 33.544C89.7919 32.552 90.9919 31.832 92.1439 31.384C92.4639 31.256 92.7519 31.176 93.0079 31.144C93.2639 31.112 93.4559 31.096 93.5839 31.096C93.9679 31.096 94.4159 31.368 94.9279 31.912C95.4399 32.424 95.9039 32.984 96.3199 33.592C96.7359 34.2 96.9759 34.664 97.0399 34.984C97.0399 35.496 96.7359 36.12 96.1279 36.856C95.5519 37.56 94.7839 38.296 93.8239 39.064C92.8639 39.8 91.8239 40.488 90.7039 41.128C89.6159 41.768 88.5599 42.28 87.5359 42.664C86.5119 43.016 85.6319 43.176 84.8959 43.144C84.3839 44.072 84.1279 44.84 84.1279 45.448C84.1279 45.768 84.2079 46.056 84.3679 46.312C84.5279 46.536 84.8479 46.632 85.3279 46.6C86.0959 46.344 87.0559 45.88 88.2079 45.208C89.3599 44.536 90.5919 43.784 91.9039 42.952C93.2479 42.088 94.5599 41.256 95.8399 40.456C97.1519 39.624 98.3199 38.936 99.3439 38.392C99.8879 38.104 100.288 37.96 100.544 37.96C100.768 37.96 100.88 38.04 100.88 38.2C100.88 38.328 100.736 38.536 100.448 38.824C100.192 39.112 99.7919 39.4 99.2479 39.688C98.9599 39.848 98.6399 40.04 98.2879 40.264C97.9359 40.488 97.5679 40.744 97.1839 41.032C96.2879 41.672 95.3279 42.408 94.3039 43.24C93.3119 44.072 92.3039 44.904 91.2799 45.736C90.2879 46.568 89.3599 47.304 88.4959 47.944C87.6639 48.584 86.9759 49.048 86.4319 49.336ZM85.9039 41.56C86.8639 41.208 87.8879 40.712 88.9759 40.072C90.0639 39.432 91.0879 38.76 92.0479 38.056C93.0079 37.32 93.7759 36.664 94.3519 36.088L94.5919 35.848C94.5919 35.784 94.3999 35.896 94.0159 36.184L89.9839 39.16C89.9519 39.192 89.9039 39.208 89.8399 39.208C89.8079 39.208 89.8239 39.176 89.8879 39.112C89.9519 39.016 90.0639 38.92 90.2239 38.824C90.8639 38.376 91.5199 37.88 92.1919 37.336C92.8639 36.76 93.5039 36.216 94.1119 35.704C94.8799 35.096 95.2639 34.728 95.2639 34.6C94.5279 34.6 93.5839 34.952 92.4319 35.656C91.2799 36.36 90.1119 37.24 88.9279 38.296C87.7759 39.352 86.7679 40.44 85.9039 41.56ZM130.002 49.576C129.394 49.192 128.866 48.728 128.418 48.184C127.97 47.608 127.794 47.112 127.89 46.696C127.954 46.376 128.162 45.88 128.514 45.208C128.898 44.536 129.346 43.784 129.858 42.952C130.37 42.12 130.882 41.272 131.394 40.408C131.938 39.544 132.418 38.776 132.834 38.104C132.898 38.008 132.802 38.136 132.546 38.488C132.322 38.808 132.018 39.24 131.634 39.784C131.282 40.296 130.93 40.824 130.578 41.368C130.258 41.88 130.018 42.264 129.858 42.52C129.858 42.36 129.986 42.056 130.242 41.608C130.53 41.16 130.85 40.68 131.202 40.168C131.554 39.624 131.89 39.112 132.21 38.632C132.53 38.152 132.754 37.816 132.882 37.624C132.018 38.584 131.026 39.672 129.906 40.888C128.786 42.072 127.666 43.24 126.546 44.392C125.458 45.544 124.482 46.552 123.618 47.416C122.786 48.28 122.226 48.856 121.938 49.144C121.074 48.856 120.466 48.408 120.114 47.8C119.762 47.192 119.586 46.6 119.586 46.024C119.586 45.704 119.634 45.4 119.73 45.112C120.082 44.376 120.562 43.464 121.17 42.376C121.81 41.256 122.482 40.12 123.186 38.968C123.89 37.816 124.546 36.744 125.154 35.752C125.762 34.728 126.226 33.944 126.546 33.4C126.514 33.176 126.402 32.904 126.21 32.584C126.05 32.264 125.97 31.992 125.97 31.768C125.97 31.512 126.194 31.384 126.642 31.384C126.738 31.384 126.85 31.384 126.978 31.384C127.138 31.384 127.314 31.416 127.506 31.48C127.73 31.512 128.082 31.608 128.562 31.768C129.042 31.928 129.474 32.168 129.858 32.488C130.274 32.776 130.482 33.176 130.482 33.688C130.482 34.04 130.37 34.392 130.146 34.744C129.762 35.192 129.298 35.832 128.754 36.664C128.242 37.496 127.714 38.376 127.17 39.304C126.658 40.232 126.178 41.096 125.73 41.896C125.314 42.664 125.026 43.224 124.866 43.576C125.122 43.416 125.586 43.016 126.258 42.376C126.93 41.736 127.698 40.968 128.562 40.072C129.458 39.176 130.354 38.28 131.25 37.384C132.146 36.456 132.946 35.672 133.65 35.032C133.65 34.904 133.81 34.568 134.13 34.024C134.482 33.448 134.882 32.84 135.33 32.2C135.81 31.56 136.21 31.096 136.53 30.808C136.946 30.968 137.394 31.192 137.874 31.48C138.386 31.736 138.818 32.024 139.17 32.344C139.554 32.632 139.746 32.92 139.746 33.208C139.746 33.336 139.698 33.48 139.602 33.64C138.546 35.112 137.554 36.488 136.626 37.768C135.698 39.016 134.93 40.056 134.322 40.888C133.714 41.72 133.362 42.248 133.266 42.472C133.522 42.248 133.81 42.008 134.13 41.752C134.642 41.272 135.378 40.744 136.338 40.168C137.522 39.4 138.882 38.616 140.418 37.816C141.986 36.984 143.634 36.296 145.362 35.752C145.65 35.656 145.874 35.608 146.034 35.608C146.322 35.608 146.386 35.736 146.226 35.992C146.066 36.216 145.81 36.472 145.458 36.76C145.138 37.048 144.802 37.272 144.45 37.432C142.722 38.296 141.09 39.224 139.554 40.216C138.018 41.208 136.61 42.312 135.33 43.528C134.37 44.424 133.49 45.416 132.69 46.504C131.89 47.56 130.994 48.584 130.002 49.576ZM133.89 41.992C133.89 42.024 133.986 42.008 134.178 41.944C134.37 41.848 134.514 41.768 134.61 41.704C135.282 41.192 136.13 40.648 137.154 40.072C138.21 39.464 139.234 38.904 140.226 38.392C141.218 37.88 141.938 37.528 142.386 37.336C142.642 37.24 142.978 37.08 143.394 36.856C143.842 36.632 143.986 36.552 143.826 36.616C143.346 36.744 142.674 37 141.81 37.384C140.978 37.736 140.066 38.168 139.074 38.68C138.114 39.16 137.202 39.656 136.338 40.168C135.922 40.456 135.522 40.744 135.138 41.032C134.786 41.288 134.45 41.528 134.13 41.752C134.066 41.816 134.002 41.88 133.938 41.944L133.89 41.992Z" fill="black"/>
<path d="M105.572 49.432C105.06 49.272 104.628 48.984 104.276 48.568C103.924 48.12 103.652 47.656 103.46 47.176C103.3 46.664 103.22 46.248 103.22 45.928C103.22 45.096 103.572 43.992 104.276 42.616C104.98 41.24 105.876 39.768 106.964 38.2C105.652 38.424 104.388 38.68 103.172 38.968C101.956 39.256 101.124 39.496 100.676 39.688C100.612 39.72 100.532 39.752 100.436 39.784C100.34 39.784 100.26 39.784 100.196 39.784C99.8439 39.784 99.4919 39.656 99.1399 39.4C98.8199 39.144 98.5479 38.856 98.3239 38.536C98.0999 38.216 97.9719 37.976 97.9399 37.816C97.8439 37.24 97.9719 36.664 98.3239 36.088C98.7079 35.512 99.1719 34.968 99.7159 34.456C100.292 33.944 100.836 33.512 101.348 33.16C101.86 32.808 102.212 32.552 102.404 32.392C103.492 31.592 104.708 30.712 106.052 29.752C107.428 28.792 108.804 27.848 110.18 26.92C111.556 25.96 112.82 25.08 113.972 24.28C115.124 23.48 116.052 22.84 116.756 22.36C117.492 21.88 117.876 21.64 117.908 21.64C118.612 21.64 119.252 21.864 119.828 22.312C120.436 22.76 120.916 23.224 121.268 23.704C121.62 24.152 121.796 24.44 121.796 24.568C121.796 24.696 121.428 25.24 120.692 26.2C119.988 27.128 119.076 28.328 117.956 29.8C116.836 31.24 115.636 32.824 114.356 34.552C114.516 34.552 114.676 34.552 114.836 34.552C115.028 34.552 115.204 34.568 115.364 34.6C115.236 34.6 115.076 34.6 114.884 34.6C114.692 34.6 114.5 34.616 114.308 34.648L114.164 34.792C114.996 34.728 115.812 34.744 116.612 34.84C117.444 34.936 118.116 35.16 118.628 35.512L118.484 35.32L118.628 35.416C119.108 35.672 119.348 36.008 119.348 36.424C119.348 36.968 119.012 37.56 118.34 38.2C117.7 38.84 117.076 39.416 116.468 39.928C116.34 40.056 116.084 40.232 115.7 40.456C115.348 40.68 115.076 40.792 114.884 40.792C114.788 40.792 114.74 40.744 114.74 40.648C114.74 40.552 114.836 40.36 115.028 40.072C115.38 39.528 115.556 39.08 115.556 38.728C115.556 38.248 115.268 37.928 114.692 37.768C114.116 37.608 113.268 37.544 112.148 37.576C110.708 39.528 109.412 41.464 108.26 43.384C107.748 44.184 107.268 45.016 106.82 45.88C106.372 46.744 106.18 47.672 106.244 48.664V48.76C106.244 49.144 106.148 49.352 105.956 49.384C105.796 49.448 105.668 49.464 105.572 49.432ZM101.108 36.472C101.524 36.376 102.18 36.264 103.076 36.136C104.004 35.976 105.012 35.8 106.1 35.608C107.22 35.416 108.228 35.24 109.124 35.08C110.148 33.672 111.172 32.312 112.196 31C113.22 29.656 114.148 28.44 114.98 27.352C115.812 26.264 116.452 25.4 116.9 24.76C116.708 24.952 116.196 25.352 115.364 25.96C114.532 26.536 113.508 27.256 112.292 28.12C111.076 28.952 109.78 29.864 108.404 30.856C107.028 31.816 105.7 32.792 104.42 33.784C103.14 34.744 102.036 35.64 101.108 36.472ZM118.484 35.32C117.716 34.936 116.724 34.696 115.508 34.6H115.796C116.244 34.6 116.74 34.648 117.284 34.744C117.828 34.84 118.228 35.032 118.484 35.32ZM104.756 35.896L108.884 35.416L109.076 35.176C107.092 35.432 105.652 35.672 104.756 35.896Z" fill="#F2860A"/>
</g>
<path d="M38.776 53.104C37.688 52.88 37 52.432 36.712 51.76C36.456 51.12 36.296 50.4 36.232 49.6L35.896 48.64C35.736 48.096 35.656 47.504 35.656 46.864C35.656 45.648 35.832 44.208 36.184 42.544C36.536 40.88 36.968 39.168 37.48 37.408C38.024 35.648 38.568 33.984 39.112 32.416C39.688 30.848 40.184 29.536 40.6 28.48C41.016 27.424 41.288 26.784 41.416 26.56C40.968 27.008 40.264 27.696 39.304 28.624C38.344 29.52 37.272 30.56 36.088 31.744C34.904 32.896 33.736 34.064 32.584 35.248C31.464 36.432 30.488 37.536 29.656 38.56C28.824 39.584 28.28 40.416 28.024 41.056C27.416 40.992 26.936 40.656 26.584 40.048C26.264 39.408 26.104 38.8 26.104 38.224C26.104 37.776 26.328 37.04 26.776 36.016C27.256 34.96 27.848 33.792 28.552 32.512C29.256 31.2 29.976 29.92 30.712 28.672C31.48 27.392 32.168 26.256 32.776 25.264C33.416 24.272 33.88 23.584 34.168 23.2C34.168 23.2 33.832 23.472 33.16 24.016C32.52 24.56 31.672 25.28 30.616 26.176C29.56 27.04 28.392 28.016 27.112 29.104C25.832 30.16 24.536 31.248 23.224 32.368C21.944 33.456 20.728 34.512 19.576 35.536C18.456 36.528 17.528 37.392 16.792 38.128C16.76 38.192 16.936 38.08 17.32 37.792C17.704 37.472 18.184 37.072 18.76 36.592C19.368 36.08 19.96 35.584 20.536 35.104C21.144 34.624 21.64 34.224 22.024 33.904C22.408 33.584 22.584 33.456 22.552 33.52C20.856 35.088 19.512 36.304 18.52 37.168C17.56 38.032 16.808 38.736 16.264 39.28C16.008 39.536 15.704 39.952 15.352 40.528C15.032 41.104 14.76 41.712 14.536 42.352C14.312 42.992 14.2 43.6 14.2 44.176C14.2 44.784 14.36 45.232 14.68 45.52C14.84 45.648 14.968 45.776 15.064 45.904C15.16 46.032 15.208 46.144 15.208 46.24C15.208 46.4 15.032 46.48 14.68 46.48C13.944 46.416 13.304 46.144 12.76 45.664C12.216 45.184 11.8 44.656 11.512 44.08C11.224 43.472 11.08 42.944 11.08 42.496C11.08 41.952 11.4 41.088 12.04 39.904C12.68 38.72 13.512 37.344 14.536 35.776C15.592 34.176 16.728 32.512 17.944 30.784C19.16 29.056 20.376 27.376 21.592 25.744C22.808 24.112 23.896 22.656 24.856 21.376C25.816 20.064 26.552 19.072 27.064 18.4C26.424 18.912 25.896 19.472 25.48 20.08C25.096 20.656 24.744 20.976 24.424 21.04C24.808 20.592 25.32 20 25.96 19.264C26.6 18.528 27 17.856 27.16 17.248C26.904 17.184 26.616 17.152 26.296 17.152C25.976 17.152 25.64 17.152 25.288 17.152C23.784 17.152 21.96 17.28 19.816 17.536C17.672 17.792 15.64 18.128 13.72 18.544C13.4 18.608 12.856 18.784 12.088 19.072C11.32 19.328 10.44 19.664 9.448 20.08C8.488 20.496 7.528 20.976 6.568 21.52C5.608 22.064 4.776 22.656 4.072 23.296C3.4 23.904 2.968 24.544 2.776 25.216C2.904 25.472 2.968 25.712 2.968 25.936C2.968 26.384 2.744 26.608 2.296 26.608C1.912 26.608 1.496 26.384 1.048 25.936C0.6 25.488 0.376 24.864 0.376 24.064C0.376 23.648 0.44 23.248 0.568 22.864C0.888 21.84 1.448 20.944 2.248 20.176C3.048 19.408 3.976 18.736 5.032 18.16C6.12 17.584 7.24 17.104 8.392 16.72C9.544 16.336 10.632 16.032 11.656 15.808C12.68 15.552 13.944 15.36 15.448 15.232C16.952 15.104 18.52 15.04 20.152 15.04C21.4 15.04 22.648 15.088 23.896 15.184C25.144 15.28 26.312 15.44 27.4 15.664V15.52C27.4 15.296 27.528 15.184 27.784 15.184C27.848 15.184 28.008 15.216 28.264 15.28C28.648 15.408 29.144 15.632 29.752 15.952C30.36 16.272 30.888 16.656 31.336 17.104C31.816 17.52 32.056 17.968 32.056 18.448C32.056 18.608 32.04 18.736 32.008 18.832C30.952 19.952 29.752 21.28 28.408 22.816C27.096 24.352 25.752 25.984 24.376 27.712C23 29.408 21.672 31.136 20.392 32.896C21.512 31.936 22.76 30.864 24.136 29.68C25.544 28.464 26.952 27.264 28.36 26.08C29.8 24.896 31.112 23.808 32.296 22.816C33.512 21.824 34.472 21.056 35.176 20.512C35.496 20.512 35.912 20.672 36.424 20.992C36.968 21.312 37.448 21.68 37.864 22.096C38.312 22.512 38.536 22.896 38.536 23.248C38.248 23.728 37.832 24.368 37.288 25.168C36.744 25.968 36.168 26.816 35.56 27.712C34.952 28.608 34.36 29.472 33.784 30.304C33.208 31.136 32.728 31.84 32.344 32.416C32.472 32.32 32.856 31.936 33.496 31.264C34.168 30.592 34.968 29.792 35.896 28.864C36.856 27.936 37.816 27.024 38.776 26.128C39.768 25.2 40.632 24.432 41.368 23.824C42.136 23.184 42.632 22.848 42.856 22.816C43.016 22.816 43.304 22.976 43.72 23.296C44.136 23.584 44.568 23.952 45.016 24.4C45.464 24.848 45.816 25.28 46.072 25.696C46.36 26.08 46.456 26.352 46.36 26.512C44.92 28.4 43.672 30.432 42.616 32.608C41.592 34.784 40.728 36.912 40.024 38.992C40.568 37.648 41.128 36.32 41.704 35.008C42.28 33.696 42.84 32.496 43.384 31.408C43.96 30.32 44.44 29.456 44.824 28.816C44.888 28.752 44.92 28.72 44.92 28.72C44.952 28.72 44.936 28.816 44.872 29.008C44.808 29.2 44.696 29.424 44.536 29.68C44.344 30 44.024 30.64 43.576 31.6C43.16 32.56 42.68 33.696 42.136 35.008C41.592 36.32 41.048 37.664 40.504 39.04C39.992 40.416 39.528 41.728 39.112 42.976C38.728 44.192 38.472 45.184 38.344 45.952C38.12 47.04 37.96 47.792 37.864 48.208C37.8 48.656 37.752 48.688 37.72 48.304L37.576 49.552C38.056 49.616 38.504 49.696 38.92 49.792C39.368 49.92 39.592 50.016 39.592 50.08C40.488 50.208 41.144 50.4 41.56 50.656C41.976 50.944 42.184 51.232 42.184 51.52C42.184 51.84 41.896 52.144 41.32 52.432C40.744 52.752 39.896 52.976 38.776 53.104ZM37.72 48.208C37.912 47.088 38.184 45.728 38.536 44.128C38.92 42.528 39.416 40.816 40.024 38.992C39.416 40.592 38.888 42.128 38.44 43.6C38.024 45.072 37.8 46.304 37.768 47.296C37.736 47.488 37.72 47.664 37.72 47.824C37.72 47.984 37.72 48.112 37.72 48.208ZM46.4114 46.816C46.2194 46.816 45.9154 46.592 45.4994 46.144C45.1154 45.728 44.7154 45.264 44.2994 44.752C43.9154 44.208 43.6274 43.808 43.4354 43.552C43.7234 42.304 44.2194 41.008 44.9234 39.664C45.6594 38.288 46.5074 36.944 47.4674 35.632C48.4274 34.32 49.3874 33.104 50.3474 31.984C51.3394 30.864 52.2034 29.92 52.9394 29.152C52.3954 29.568 51.8194 30.112 51.2114 30.784C50.6034 31.424 50.1874 31.856 49.9634 32.08C49.5794 32.464 49.1954 32.848 48.8114 33.232C48.4274 33.584 48.0754 33.936 47.7554 34.288C48.7154 33.104 49.6594 32.016 50.5874 31.024C51.5474 30.032 52.2354 29.376 52.6514 29.056C52.7474 28.96 52.8754 28.848 53.0354 28.72C53.2274 28.592 53.4354 28.512 53.6594 28.48L54.0434 28.048C54.9074 28.08 55.8354 28.352 56.8274 28.864C57.8194 29.344 58.6674 29.984 59.3714 30.784C60.1074 31.552 60.4914 32.432 60.5234 33.424C60.5234 33.552 60.4594 33.68 60.3314 33.808C60.2034 33.904 60.1074 33.84 60.0434 33.616C59.8194 33.136 59.5634 32.704 59.2754 32.32C58.9874 31.936 58.6674 31.632 58.3154 31.408C57.9954 31.216 57.6594 31.12 57.3074 31.12C56.9234 31.12 56.5714 31.248 56.2514 31.504C55.6114 31.984 54.8434 32.704 53.9474 33.664C53.0834 34.592 52.2034 35.6 51.3074 36.688C50.4434 37.776 49.6594 38.832 48.9554 39.856C48.2834 40.88 47.8194 41.728 47.5634 42.4C47.7554 42.176 48.0914 41.856 48.5714 41.44C49.0514 41.024 49.5634 40.608 50.1074 40.192C50.6514 39.744 51.1154 39.376 51.4994 39.088C51.6274 38.992 51.8994 38.8 52.3154 38.512C52.7314 38.224 53.1634 37.92 53.6114 37.6C54.0914 37.28 54.4754 37.04 54.7634 36.88C54.7634 36.944 54.5714 37.12 54.1874 37.408C53.8354 37.696 53.4034 38.016 52.8914 38.368C52.3794 38.72 51.8994 39.04 51.4514 39.328C51.0354 39.616 50.7794 39.808 50.6834 39.904C50.3314 40.224 49.9154 40.592 49.4354 41.008C48.9874 41.424 48.5714 41.808 48.1874 42.16C47.8034 42.512 47.5474 42.768 47.4194 42.928C47.3554 43.056 47.3394 43.136 47.3714 43.168C47.4034 43.2 47.4674 43.152 47.5634 43.024C47.8514 42.608 48.2834 42.16 48.8594 41.68C49.4354 41.2 50.0594 40.72 50.7314 40.24C51.4354 39.728 52.0594 39.264 52.6034 38.848C53.2434 38.368 53.8194 37.952 54.3314 37.6C54.8754 37.216 55.3554 36.864 55.7714 36.544C55.8034 35.872 56.0434 35.408 56.4914 35.152C56.9714 34.896 57.3394 34.816 57.5954 34.912C57.7874 34.976 58.0754 35.104 58.4594 35.296C58.8754 35.456 59.2434 35.664 59.5634 35.92C59.8834 36.144 59.9794 36.4 59.8514 36.688C59.6274 37.2 59.4514 38 59.3234 39.088C59.2274 40.144 59.1794 41.12 59.1794 42.016C59.1794 43.296 59.5794 43.936 60.3794 43.936C60.7954 43.936 61.3554 43.712 62.0594 43.264C62.3154 43.104 62.5074 43.024 62.6354 43.024C62.7314 43.024 62.7794 43.072 62.7794 43.168C62.7794 43.296 62.6994 43.488 62.5394 43.744C62.3794 43.968 62.2674 44.112 62.2034 44.176C61.8194 44.592 61.3554 44.976 60.8114 45.328C60.2994 45.648 59.7714 45.808 59.2274 45.808C59.0034 45.808 58.7794 45.776 58.5554 45.712C58.3314 45.648 58.1074 45.536 57.8834 45.376C57.0834 44.832 56.5074 44 56.1554 42.88C55.8354 41.76 55.6754 40.8 55.6754 40C55.6754 39.808 55.6754 39.632 55.6754 39.472C55.7074 39.312 55.7394 39.168 55.7714 39.04C55.4194 39.328 54.8274 39.824 53.9954 40.528C53.1954 41.2 52.2994 41.968 51.3074 42.832C50.3154 43.664 49.3714 44.448 48.4754 45.184C47.5794 45.92 46.8914 46.464 46.4114 46.816ZM65.3343 47.44C65.1423 47.44 64.8543 47.344 64.4703 47.152C64.0863 46.992 63.7343 46.768 63.4143 46.48C63.1263 46.192 62.9823 45.92 62.9823 45.664C62.9823 45.504 63.0623 45.296 63.2223 45.04L63.2703 44.944C62.8223 44.336 62.5663 43.872 62.5023 43.552C62.8863 42.144 63.5103 40.72 64.3743 39.28C65.2383 37.808 66.1663 36.4 67.1583 35.056C66.6463 35.568 66.1663 36.096 65.7183 36.64C65.3023 37.152 64.9343 37.568 64.6143 37.888C65.1583 37.056 65.8623 36.176 66.7263 35.248C67.5903 34.32 68.3743 33.456 69.0783 32.656C68.7583 33.04 68.4383 33.424 68.1183 33.808C67.7983 34.192 67.4783 34.608 67.1583 35.056C67.3503 34.864 67.5263 34.672 67.6863 34.48C67.8783 34.288 68.0703 34.112 68.2623 33.952C68.4543 33.76 68.7583 33.44 69.1743 32.992C69.6223 32.544 70.1023 32.048 70.6143 31.504C71.1583 30.96 71.6543 30.464 72.1023 30.016C72.5823 29.568 72.9503 29.264 73.2063 29.104C73.6223 28.816 73.7183 28.672 73.4943 28.672C73.3343 28.672 73.0623 28.832 72.6783 29.152C72.3263 29.472 71.9743 29.808 71.6223 30.16C71.3023 30.512 71.0943 30.736 70.9983 30.832L69.0783 32.656C70.0063 31.6 70.8703 30.656 71.6703 29.824C72.5023 28.96 73.1903 28.272 73.7343 27.76C74.4063 27.792 75.1423 27.968 75.9423 28.288C76.7423 28.576 77.4303 29.008 78.0063 29.584C78.9983 30.512 79.5903 31.488 79.7823 32.512C80.9023 30.944 82.0383 29.36 83.1903 27.76C84.3743 26.128 85.4943 24.592 86.5503 23.152C87.6383 21.712 88.5823 20.464 89.3823 19.408C90.1823 18.32 90.7583 17.52 91.1103 17.008C91.0143 16.848 90.9183 16.704 90.8223 16.576C90.7263 16.448 90.6783 16.336 90.6783 16.24C90.6783 16.048 90.9503 15.968 91.4943 16C91.9423 16.032 92.4543 16.224 93.0303 16.576C93.6383 16.928 94.1503 17.328 94.5663 17.776C94.9823 18.192 95.1263 18.576 94.9983 18.928C94.6143 19.312 93.9903 19.984 93.1263 20.944C92.2623 21.904 91.2383 23.04 90.0543 24.352C88.9023 25.664 87.6863 27.072 86.4062 28.576C85.1263 30.048 83.8783 31.504 82.6623 32.944C82.4703 33.168 82.1503 33.6 81.7023 34.24C81.2543 34.88 80.7423 35.648 80.1663 36.544C79.5903 37.408 79.0303 38.336 78.4863 39.328C77.9743 40.288 77.5423 41.232 77.1903 42.16C76.8383 43.056 76.6623 43.824 76.6623 44.464C76.6623 45.328 76.9663 45.84 77.5743 46C77.9903 46.128 78.1983 46.256 78.1983 46.384C78.1983 46.544 77.9743 46.624 77.5263 46.624C77.1743 46.624 76.7903 46.56 76.3743 46.432C75.6063 46.208 75.0623 45.84 74.7422 45.328C74.4543 44.784 74.3103 44.192 74.3103 43.552C74.3103 42.592 74.5183 41.6 74.9343 40.576C75.3823 39.52 75.7983 38.64 76.1823 37.936C75.1903 38.864 74.0863 39.904 72.8703 41.056C71.6543 42.176 70.4863 43.216 69.3663 44.176C69.4303 44.176 69.4943 44.208 69.5583 44.272C69.6863 44.336 69.5743 44.544 69.2223 44.896C68.9023 45.216 68.4703 45.584 67.9263 46C67.3823 46.384 66.8543 46.72 66.3423 47.008C65.8623 47.296 65.5263 47.44 65.3343 47.44ZM67.0623 43.696C67.5103 43.408 68.1343 42.976 68.9343 42.4C69.7343 41.792 70.6303 41.104 71.6223 40.336C72.6463 39.536 73.6863 38.704 74.7422 37.84C75.7983 36.944 76.7743 36.096 77.6703 35.296C77.5423 35.232 77.4783 35.088 77.4783 34.864C77.4783 34.64 77.5423 34.4 77.6703 34.144C77.9583 33.6 78.1663 33.12 78.2943 32.704C78.4223 32.288 78.4863 31.92 78.4863 31.6C78.4863 30.832 78.1823 30.448 77.5743 30.448C77.0943 30.448 76.5503 30.688 75.9423 31.168C75.3983 31.584 74.7103 32.224 73.8783 33.088C73.0463 33.92 72.1823 34.864 71.2863 35.92C70.4223 36.944 69.6063 37.968 68.8383 38.992C68.1023 39.984 67.5263 40.88 67.1103 41.68C66.7263 42.448 66.5983 43.008 66.7263 43.36L73.9743 38.032C74.0383 37.968 74.0863 37.92 74.1183 37.888C74.1823 37.856 74.2143 37.84 74.2143 37.84C74.2463 37.84 74.1823 37.936 74.0223 38.128C73.8623 38.288 73.7023 38.448 73.5423 38.608C73.0943 38.96 72.4543 39.456 71.6223 40.096C70.7903 40.704 69.9423 41.328 69.0783 41.968C68.2463 42.576 67.5423 43.12 66.9663 43.6C66.8383 43.696 66.7743 43.76 66.7743 43.792C66.8063 43.824 66.9023 43.792 67.0623 43.696ZM87.4319 46.336C86.7279 46.336 85.9759 46.064 85.1759 45.52C84.3759 44.976 83.6879 44.336 83.1119 43.6C82.5679 42.864 82.2959 42.192 82.2959 41.584C82.2959 40.432 82.6319 39.2 83.3039 37.888C84.0079 36.544 84.9039 35.232 85.9919 33.952C87.1119 32.672 88.2959 31.536 89.5439 30.544C90.7919 29.552 91.9919 28.832 93.1439 28.384C93.4639 28.256 93.7519 28.176 94.0079 28.144C94.2639 28.112 94.4559 28.096 94.5839 28.096C94.9679 28.096 95.4159 28.368 95.9279 28.912C96.4399 29.424 96.9039 29.984 97.3199 30.592C97.7359 31.2 97.9759 31.664 98.0399 31.984C98.0399 32.496 97.7359 33.12 97.1279 33.856C96.5519 34.56 95.7839 35.296 94.8239 36.064C93.8639 36.8 92.8239 37.488 91.7039 38.128C90.6159 38.768 89.5599 39.28 88.5359 39.664C87.5119 40.016 86.6319 40.176 85.8959 40.144C85.3839 41.072 85.1279 41.84 85.1279 42.448C85.1279 42.768 85.2079 43.056 85.3679 43.312C85.5279 43.536 85.8479 43.632 86.3279 43.6C87.0959 43.344 88.0559 42.88 89.2079 42.208C90.3599 41.536 91.5919 40.784 92.9039 39.952C94.2479 39.088 95.5599 38.256 96.8399 37.456C98.1519 36.624 99.3199 35.936 100.344 35.392C100.888 35.104 101.288 34.96 101.544 34.96C101.768 34.96 101.88 35.04 101.88 35.2C101.88 35.328 101.736 35.536 101.448 35.824C101.192 36.112 100.792 36.4 100.248 36.688C99.9599 36.848 99.6399 37.04 99.2879 37.264C98.9359 37.488 98.5679 37.744 98.1839 38.032C97.2879 38.672 96.3279 39.408 95.3039 40.24C94.3119 41.072 93.3039 41.904 92.2799 42.736C91.2879 43.568 90.3599 44.304 89.4959 44.944C88.6639 45.584 87.9759 46.048 87.4319 46.336ZM86.9039 38.56C87.8639 38.208 88.8879 37.712 89.9759 37.072C91.0639 36.432 92.0879 35.76 93.0479 35.056C94.0079 34.32 94.7759 33.664 95.3519 33.088L95.5919 32.848C95.5919 32.784 95.3999 32.896 95.0159 33.184L90.9839 36.16C90.9519 36.192 90.9039 36.208 90.8399 36.208C90.8079 36.208 90.8239 36.176 90.8879 36.112C90.9519 36.016 91.0639 35.92 91.2239 35.824C91.8639 35.376 92.5199 34.88 93.1919 34.336C93.8639 33.76 94.5039 33.216 95.1119 32.704C95.8799 32.096 96.2639 31.728 96.2639 31.6C95.5279 31.6 94.5839 31.952 93.4319 32.656C92.2799 33.36 91.1119 34.24 89.9279 35.296C88.7759 36.352 87.7679 37.44 86.9039 38.56ZM131.002 46.576C130.394 46.192 129.866 45.728 129.418 45.184C128.97 44.608 128.794 44.112 128.89 43.696C128.954 43.376 129.162 42.88 129.514 42.208C129.898 41.536 130.346 40.784 130.858 39.952C131.37 39.12 131.882 38.272 132.394 37.408C132.938 36.544 133.418 35.776 133.834 35.104C133.898 35.008 133.802 35.136 133.546 35.488C133.322 35.808 133.018 36.24 132.634 36.784C132.282 37.296 131.93 37.824 131.578 38.368C131.258 38.88 131.018 39.264 130.858 39.52C130.858 39.36 130.986 39.056 131.242 38.608C131.53 38.16 131.85 37.68 132.202 37.168C132.554 36.624 132.89 36.112 133.21 35.632C133.53 35.152 133.754 34.816 133.882 34.624C133.018 35.584 132.026 36.672 130.906 37.888C129.786 39.072 128.666 40.24 127.546 41.392C126.458 42.544 125.482 43.552 124.618 44.416C123.786 45.28 123.226 45.856 122.938 46.144C122.074 45.856 121.466 45.408 121.114 44.8C120.762 44.192 120.586 43.6 120.586 43.024C120.586 42.704 120.634 42.4 120.73 42.112C121.082 41.376 121.562 40.464 122.17 39.376C122.81 38.256 123.482 37.12 124.186 35.968C124.89 34.816 125.546 33.744 126.154 32.752C126.762 31.728 127.226 30.944 127.546 30.4C127.514 30.176 127.402 29.904 127.21 29.584C127.05 29.264 126.97 28.992 126.97 28.768C126.97 28.512 127.194 28.384 127.642 28.384C127.738 28.384 127.85 28.384 127.978 28.384C128.138 28.384 128.314 28.416 128.506 28.48C128.73 28.512 129.082 28.608 129.562 28.768C130.042 28.928 130.474 29.168 130.858 29.488C131.274 29.776 131.482 30.176 131.482 30.688C131.482 31.04 131.37 31.392 131.146 31.744C130.762 32.192 130.298 32.832 129.754 33.664C129.242 34.496 128.714 35.376 128.17 36.304C127.658 37.232 127.178 38.096 126.73 38.896C126.314 39.664 126.026 40.224 125.866 40.576C126.122 40.416 126.586 40.016 127.258 39.376C127.93 38.736 128.698 37.968 129.562 37.072C130.458 36.176 131.354 35.28 132.25 34.384C133.146 33.456 133.946 32.672 134.65 32.032C134.65 31.904 134.81 31.568 135.13 31.024C135.482 30.448 135.882 29.84 136.33 29.2C136.81 28.56 137.21 28.096 137.53 27.808C137.946 27.968 138.394 28.192 138.874 28.48C139.386 28.736 139.818 29.024 140.17 29.344C140.554 29.632 140.746 29.92 140.746 30.208C140.746 30.336 140.698 30.48 140.602 30.64C139.546 32.112 138.554 33.488 137.626 34.768C136.698 36.016 135.93 37.056 135.322 37.888C134.714 38.72 134.362 39.248 134.266 39.472C134.522 39.248 134.81 39.008 135.13 38.752C135.642 38.272 136.378 37.744 137.338 37.168C138.522 36.4 139.882 35.616 141.418 34.816C142.986 33.984 144.634 33.296 146.362 32.752C146.65 32.656 146.874 32.608 147.034 32.608C147.322 32.608 147.386 32.736 147.226 32.992C147.066 33.216 146.81 33.472 146.458 33.76C146.138 34.048 145.802 34.272 145.45 34.432C143.722 35.296 142.09 36.224 140.554 37.216C139.018 38.208 137.61 39.312 136.33 40.528C135.37 41.424 134.49 42.416 133.69 43.504C132.89 44.56 131.994 45.584 131.002 46.576ZM134.89 38.992C134.89 39.024 134.986 39.008 135.178 38.944C135.37 38.848 135.514 38.768 135.61 38.704C136.282 38.192 137.13 37.648 138.154 37.072C139.21 36.464 140.234 35.904 141.226 35.392C142.218 34.88 142.938 34.528 143.386 34.336C143.642 34.24 143.978 34.08 144.394 33.856C144.842 33.632 144.986 33.552 144.826 33.616C144.346 33.744 143.674 34 142.81 34.384C141.978 34.736 141.066 35.168 140.074 35.68C139.114 36.16 138.202 36.656 137.338 37.168C136.922 37.456 136.522 37.744 136.138 38.032C135.786 38.288 135.45 38.528 135.13 38.752C135.066 38.816 135.002 38.88 134.938 38.944L134.89 38.992Z" fill="black"/>
<path d="M106.572 46.432C106.06 46.272 105.628 45.984 105.276 45.568C104.924 45.12 104.652 44.656 104.46 44.176C104.3 43.664 104.22 43.248 104.22 42.928C104.22 42.096 104.572 40.992 105.276 39.616C105.98 38.24 106.876 36.768 107.964 35.2C106.652 35.424 105.388 35.68 104.172 35.968C102.956 36.256 102.124 36.496 101.676 36.688C101.612 36.72 101.532 36.752 101.436 36.784C101.34 36.784 101.26 36.784 101.196 36.784C100.844 36.784 100.492 36.656 100.14 36.4C99.8199 36.144 99.5479 35.856 99.3239 35.536C99.0999 35.216 98.9719 34.976 98.9399 34.816C98.8439 34.24 98.9719 33.664 99.3239 33.088C99.7079 32.512 100.172 31.968 100.716 31.456C101.292 30.944 101.836 30.512 102.348 30.16C102.86 29.808 103.212 29.552 103.404 29.392C104.492 28.592 105.708 27.712 107.052 26.752C108.428 25.792 109.804 24.848 111.18 23.92C112.556 22.96 113.82 22.08 114.972 21.28C116.124 20.48 117.052 19.84 117.756 19.36C118.492 18.88 118.876 18.64 118.908 18.64C119.612 18.64 120.252 18.864 120.828 19.312C121.436 19.76 121.916 20.224 122.268 20.704C122.62 21.152 122.796 21.44 122.796 21.568C122.796 21.696 122.428 22.24 121.692 23.2C120.988 24.128 120.076 25.328 118.956 26.8C117.836 28.24 116.636 29.824 115.356 31.552C115.516 31.552 115.676 31.552 115.836 31.552C116.028 31.552 116.204 31.568 116.364 31.6C116.236 31.6 116.076 31.6 115.884 31.6C115.692 31.6 115.5 31.616 115.308 31.648L115.164 31.792C115.996 31.728 116.812 31.744 117.612 31.84C118.444 31.936 119.116 32.16 119.628 32.512L119.484 32.32L119.628 32.416C120.108 32.672 120.348 33.008 120.348 33.424C120.348 33.968 120.012 34.56 119.34 35.2C118.7 35.84 118.076 36.416 117.468 36.928C117.34 37.056 117.084 37.232 116.7 37.456C116.348 37.68 116.076 37.792 115.884 37.792C115.788 37.792 115.74 37.744 115.74 37.648C115.74 37.552 115.836 37.36 116.028 37.072C116.38 36.528 116.556 36.08 116.556 35.728C116.556 35.248 116.268 34.928 115.692 34.768C115.116 34.608 114.268 34.544 113.148 34.576C111.708 36.528 110.412 38.464 109.26 40.384C108.748 41.184 108.268 42.016 107.82 42.88C107.372 43.744 107.18 44.672 107.244 45.664V45.76C107.244 46.144 107.148 46.352 106.956 46.384C106.796 46.448 106.668 46.464 106.572 46.432ZM102.108 33.472C102.524 33.376 103.18 33.264 104.076 33.136C105.004 32.976 106.012 32.8 107.1 32.608C108.22 32.416 109.228 32.24 110.124 32.08C111.148 30.672 112.172 29.312 113.196 28C114.22 26.656 115.148 25.44 115.98 24.352C116.812 23.264 117.452 22.4 117.9 21.76C117.708 21.952 117.196 22.352 116.364 22.96C115.532 23.536 114.508 24.256 113.292 25.12C112.076 25.952 110.78 26.864 109.404 27.856C108.028 28.816 106.7 29.792 105.42 30.784C104.14 31.744 103.036 32.64 102.108 33.472ZM119.484 32.32C118.716 31.936 117.724 31.696 116.508 31.6H116.796C117.244 31.6 117.74 31.648 118.284 31.744C118.828 31.84 119.228 32.032 119.484 32.32ZM105.756 32.896L109.884 32.416L110.076 32.176C108.092 32.432 106.652 32.672 105.756 32.896Z" fill="#F2860A"/>
</svg>
