<svg width="123" height="116" viewBox="0 0 123 116" fill="none" xmlns="http://www.w3.org/2000/svg">
<path d="M0.832031 58C0.832031 25.9675 26.7995 0 58.832 0C90.8645 0 116.832 25.9675 116.832 58C116.832 90.0325 90.8645 116 58.832 116C26.7995 116 0.832031 90.0325 0.832031 58Z" fill="black"/>
<path d="M51.2 82.472C49.7494 82.1733 48.832 81.576 48.448 80.68C48.1067 79.8267 47.8934 78.8667 47.808 77.8L47.36 76.52C47.1467 75.7947 47.04 75.0053 47.04 74.152C47.04 72.5307 47.2747 70.6107 47.744 68.392C48.2134 66.1733 48.7894 63.8907 49.472 61.544C50.1974 59.1973 50.9227 56.9787 51.648 54.888C52.416 52.7973 53.0774 51.048 53.632 49.64C54.1867 48.232 54.5494 47.3787 54.72 47.08C54.1227 47.6773 53.184 48.5947 51.904 49.832C50.624 51.0267 49.1947 52.4133 47.616 53.992C46.0374 55.528 44.48 57.0853 42.944 58.664C41.4507 60.2427 40.1494 61.7147 39.04 63.08C37.9307 64.4453 37.2054 65.5547 36.864 66.408C36.0534 66.3227 35.4134 65.8747 34.944 65.064C34.5174 64.2107 34.304 63.4 34.304 62.632C34.304 62.0347 34.6027 61.0533 35.2 59.688C35.84 58.28 36.6294 56.7227 37.568 55.016C38.5067 53.2667 39.4667 51.56 40.448 49.896C41.472 48.1893 42.3894 46.6747 43.2 45.352C44.0534 44.0293 44.672 43.112 45.056 42.6C45.056 42.6 44.608 42.9627 43.712 43.688C42.8587 44.4133 41.728 45.3733 40.32 46.568C38.912 47.72 37.3547 49.0213 35.648 50.472C33.9414 51.88 32.2134 53.3307 30.464 54.824C28.7574 56.2747 27.136 57.6827 25.6 59.048C24.1067 60.3707 22.8694 61.5227 21.888 62.504C21.8454 62.5893 22.08 62.44 22.592 62.056C23.104 61.6293 23.744 61.096 24.512 60.456C25.3227 59.7733 26.112 59.112 26.88 58.472C27.6907 57.832 28.352 57.2987 28.864 56.872C29.376 56.4453 29.6107 56.2747 29.568 56.36C27.3067 58.4507 25.5147 60.072 24.192 61.224C22.912 62.376 21.9094 63.3147 21.184 64.04C20.8427 64.3813 20.4374 64.936 19.968 65.704C19.5414 66.472 19.1787 67.2827 18.88 68.136C18.5814 68.9893 18.432 69.8 18.432 70.568C18.432 71.3787 18.6454 71.976 19.072 72.36C19.2854 72.5307 19.456 72.7013 19.584 72.872C19.712 73.0427 19.776 73.192 19.776 73.32C19.776 73.5333 19.5414 73.64 19.072 73.64C18.0907 73.5547 17.2374 73.192 16.512 72.552C15.7867 71.912 15.232 71.208 14.848 70.44C14.464 69.6293 14.272 68.9253 14.272 68.328C14.272 67.6027 14.6987 66.4507 15.552 64.872C16.4054 63.2933 17.5147 61.4587 18.88 59.368C20.288 57.2347 21.8027 55.016 23.424 52.712C25.0454 50.408 26.6667 48.168 28.288 45.992C29.9094 43.816 31.36 41.8747 32.64 40.168C33.92 38.4187 34.9014 37.096 35.584 36.2C34.7307 36.8827 34.0267 37.6293 33.472 38.44C32.96 39.208 32.4907 39.6347 32.064 39.72C32.576 39.1227 33.2587 38.3333 34.112 37.352C34.9654 36.3707 35.4987 35.4747 35.712 34.664C35.3707 34.5787 34.9867 34.536 34.56 34.536C34.1334 34.536 33.6854 34.536 33.216 34.536C31.2107 34.536 28.7787 34.7067 25.92 35.048C23.0614 35.3893 20.352 35.8373 17.792 36.392C17.3654 36.4773 16.64 36.712 15.616 37.096C14.592 37.4373 13.4187 37.8853 12.096 38.44C10.816 38.9947 9.53603 39.6347 8.25603 40.36C6.97603 41.0853 5.8667 41.8747 4.92803 42.728C4.03203 43.5387 3.45603 44.392 3.20003 45.288C3.3707 45.6293 3.45603 45.9493 3.45603 46.248C3.45603 46.8453 3.15736 47.144 2.56003 47.144C2.04803 47.144 1.49336 46.8453 0.896031 46.248C0.298698 45.6507 3.12328e-05 44.8187 3.12328e-05 43.752C3.12328e-05 43.1973 0.0853646 42.664 0.256031 42.152C0.682698 40.7867 1.42936 39.592 2.49603 38.568C3.5627 37.544 4.80003 36.648 6.20803 35.88C7.6587 35.112 9.15203 34.472 10.688 33.96C12.224 33.448 13.6747 33.0427 15.04 32.744C16.4054 32.4027 18.0907 32.1467 20.096 31.976C22.1014 31.8053 24.192 31.72 26.368 31.72C28.032 31.72 29.696 31.784 31.36 31.912C33.024 32.04 34.5814 32.2533 36.032 32.552V32.36C36.032 32.0613 36.2027 31.912 36.544 31.912C36.6294 31.912 36.8427 31.9547 37.184 32.04C37.696 32.2107 38.3574 32.5093 39.168 32.936C39.9787 33.3627 40.6827 33.8747 41.28 34.472C41.92 35.0267 42.24 35.624 42.24 36.264C42.24 36.4773 42.2187 36.648 42.176 36.776C40.768 38.2693 39.168 40.04 37.376 42.088C35.6267 44.136 33.8347 46.312 32 48.616C30.1654 50.8773 28.3947 53.1813 26.688 55.528C28.1814 54.248 29.8454 52.8187 31.68 51.24C33.5574 49.6187 35.4347 48.0187 37.312 46.44C39.232 44.8613 40.9814 43.4107 42.56 42.088C44.1814 40.7653 45.4614 39.7413 46.4 39.016C46.8267 39.016 47.3814 39.2293 48.064 39.656C48.7894 40.0827 49.4294 40.5733 49.984 41.128C50.5814 41.6827 50.88 42.1947 50.88 42.664C50.496 43.304 49.9414 44.1573 49.216 45.224C48.4907 46.2907 47.7227 47.4213 46.912 48.616C46.1014 49.8107 45.312 50.9627 44.544 52.072C43.776 53.1813 43.136 54.12 42.624 54.888C42.7947 54.76 43.3067 54.248 44.16 53.352C45.056 52.456 46.1227 51.3893 47.36 50.152C48.64 48.9147 49.92 47.6987 51.2 46.504C52.5227 45.2667 53.6747 44.2427 54.656 43.432C55.68 42.5787 56.3414 42.1307 56.64 42.088C56.8534 42.088 57.2374 42.3013 57.792 42.728C58.3467 43.112 58.9227 43.6027 59.52 44.2C60.1174 44.7973 60.5867 45.3733 60.928 45.928C61.312 46.44 61.44 46.8027 61.312 47.016C59.392 49.5333 57.728 52.2427 56.32 55.144C54.9547 58.0453 53.8027 60.8827 52.864 63.656C53.5894 61.864 54.336 60.0933 55.104 58.344C55.872 56.5947 56.6187 54.9947 57.344 53.544C58.112 52.0933 58.752 50.9413 59.264 50.088C59.3494 50.0027 59.392 49.96 59.392 49.96C59.4347 49.96 59.4134 50.088 59.328 50.344C59.2427 50.6 59.0934 50.8987 58.88 51.24C58.624 51.6667 58.1974 52.52 57.6 53.8C57.0454 55.08 56.4054 56.5947 55.68 58.344C54.9547 60.0933 54.2294 61.8853 53.504 63.72C52.8214 65.5547 52.2027 67.304 51.648 68.968C51.136 70.5893 50.7947 71.912 50.624 72.936C50.3254 74.3867 50.112 75.3893 49.984 75.944C49.8987 76.5413 49.8347 76.584 49.792 76.072L49.6 77.736C50.24 77.8213 50.8374 77.928 51.392 78.056C51.9894 78.2267 52.288 78.3547 52.288 78.44C53.4827 78.6107 54.3574 78.8667 54.912 79.208C55.4667 79.592 55.744 79.976 55.744 80.36C55.744 80.7867 55.36 81.192 54.592 81.576C53.824 82.0027 52.6934 82.3013 51.2 82.472ZM49.792 75.944C50.048 74.4507 50.4107 72.6373 50.88 70.504C51.392 68.3707 52.0534 66.088 52.864 63.656C52.0534 65.7893 51.3494 67.8373 50.752 69.8C50.1974 71.7627 49.8987 73.4053 49.856 74.728C49.8134 74.984 49.792 75.2187 49.792 75.432C49.792 75.6453 49.792 75.816 49.792 75.944ZM100.418 73.768C99.6074 73.256 98.9034 72.6373 98.306 71.912C97.7087 71.144 97.474 70.4827 97.602 69.928C97.6874 69.5013 97.9647 68.84 98.434 67.944C98.946 67.048 99.5434 66.0453 100.226 64.936C100.909 63.8267 101.591 62.696 102.274 61.544C102.999 60.392 103.639 59.368 104.194 58.472C104.279 58.344 104.151 58.5147 103.81 58.984C103.511 59.4107 103.106 59.9867 102.594 60.712C102.125 61.3947 101.655 62.0987 101.186 62.824C100.759 63.5067 100.439 64.0187 100.226 64.36C100.226 64.1467 100.397 63.7413 100.738 63.144C101.122 62.5467 101.549 61.9067 102.018 61.224C102.487 60.4987 102.935 59.816 103.362 59.176C103.789 58.536 104.087 58.088 104.258 57.832C103.106 59.112 101.783 60.5627 100.29 62.184C98.7967 63.7627 97.3034 65.32 95.81 66.856C94.3594 68.392 93.058 69.736 91.906 70.888C90.7967 72.04 90.05 72.808 89.666 73.192C88.514 72.808 87.7034 72.2107 87.234 71.4C86.7647 70.5893 86.53 69.8 86.53 69.032C86.53 68.6053 86.594 68.2 86.722 67.816C87.1914 66.8347 87.8314 65.6187 88.642 64.168C89.4954 62.6747 90.3914 61.16 91.33 59.624C92.2687 58.088 93.1434 56.6587 93.954 55.336C94.7647 53.9707 95.3834 52.9253 95.81 52.2C95.7674 51.9013 95.618 51.5387 95.362 51.112C95.1487 50.6853 95.042 50.3227 95.042 50.024C95.042 49.6827 95.3407 49.512 95.938 49.512C96.066 49.512 96.2154 49.512 96.386 49.512C96.5994 49.512 96.834 49.5547 97.09 49.64C97.3887 49.6827 97.858 49.8107 98.498 50.024C99.138 50.2373 99.714 50.5573 100.226 50.984C100.781 51.368 101.058 51.9013 101.058 52.584C101.058 53.0533 100.909 53.5227 100.61 53.992C100.098 54.5893 99.4794 55.4427 98.754 56.552C98.0714 57.6613 97.3674 58.8347 96.642 60.072C95.9594 61.3093 95.3194 62.4613 94.722 63.528C94.1674 64.552 93.7834 65.2987 93.57 65.768C93.9114 65.5547 94.53 65.0213 95.426 64.168C96.322 63.3147 97.346 62.2907 98.498 61.096C99.6927 59.9013 100.887 58.7067 102.082 57.512C103.277 56.2747 104.343 55.2293 105.282 54.376C105.282 54.2053 105.495 53.7573 105.922 53.032C106.391 52.264 106.925 51.4533 107.522 50.6C108.162 49.7467 108.695 49.128 109.122 48.744C109.677 48.9573 110.274 49.256 110.914 49.64C111.597 49.9813 112.173 50.3653 112.642 50.792C113.154 51.176 113.41 51.56 113.41 51.944C113.41 52.1147 113.346 52.3067 113.218 52.52C111.81 54.4827 110.487 56.3173 109.25 58.024C108.013 59.688 106.989 61.0747 106.178 62.184C105.367 63.2933 104.898 63.9973 104.77 64.296C105.111 63.9973 105.495 63.6773 105.922 63.336C106.605 62.696 107.586 61.992 108.866 61.224C110.445 60.2 112.258 59.1547 114.306 58.088C116.397 56.9787 118.594 56.0613 120.898 55.336C121.282 55.208 121.581 55.144 121.794 55.144C122.178 55.144 122.263 55.3147 122.05 55.656C121.837 55.9547 121.495 56.296 121.026 56.68C120.599 57.064 120.151 57.3627 119.682 57.576C117.378 58.728 115.202 59.9653 113.154 61.288C111.106 62.6107 109.229 64.0827 107.522 65.704C106.242 66.8987 105.069 68.2213 104.002 69.672C102.935 71.08 101.741 72.4453 100.418 73.768ZM105.602 63.656C105.602 63.6987 105.73 63.6773 105.986 63.592C106.242 63.464 106.434 63.3573 106.562 63.272C107.458 62.5893 108.589 61.864 109.954 61.096C111.362 60.2853 112.727 59.5387 114.05 58.856C115.373 58.1733 116.333 57.704 116.93 57.448C117.271 57.32 117.719 57.1067 118.274 56.808C118.871 56.5093 119.063 56.4027 118.85 56.488C118.21 56.6587 117.314 57 116.162 57.512C115.053 57.9813 113.837 58.5573 112.514 59.24C111.234 59.88 110.018 60.5413 108.866 61.224C108.311 61.608 107.778 61.992 107.266 62.376C106.797 62.7173 106.349 63.0373 105.922 63.336C105.837 63.4213 105.751 63.5067 105.666 63.592L105.602 63.656Z" fill="white"/>
<path d="M67.8445 73.576C67.1619 73.3627 66.5859 72.9787 66.1165 72.424C65.6472 71.8267 65.2845 71.208 65.0285 70.568C64.8152 69.8853 64.7085 69.3307 64.7085 68.904C64.7085 67.7947 65.1779 66.3227 66.1165 64.488C67.0552 62.6533 68.2499 60.6907 69.7005 58.6C67.9512 58.8987 66.2659 59.24 64.6445 59.624C63.0232 60.008 61.9139 60.328 61.3165 60.584C61.2312 60.6267 61.1245 60.6693 60.9965 60.712C60.8685 60.712 60.7619 60.712 60.6765 60.712C60.2072 60.712 59.7379 60.5413 59.2685 60.2C58.8419 59.8587 58.4792 59.4747 58.1805 59.048C57.8819 58.6213 57.7112 58.3013 57.6685 58.088C57.5405 57.32 57.7112 56.552 58.1805 55.784C58.6925 55.016 59.3112 54.2907 60.0365 53.608C60.8045 52.9253 61.5299 52.3493 62.2125 51.88C62.8952 51.4107 63.3645 51.0693 63.6205 50.856C65.0712 49.7893 66.6925 48.616 68.4845 47.336C70.3192 46.056 72.1539 44.7973 73.9885 43.56C75.8232 42.28 77.5085 41.1067 79.0445 40.04C80.5805 38.9733 81.8179 38.12 82.7565 37.48C83.7379 36.84 84.2499 36.52 84.2925 36.52C85.2312 36.52 86.0845 36.8187 86.8525 37.416C87.6632 38.0133 88.3032 38.632 88.7725 39.272C89.2419 39.8693 89.4765 40.2533 89.4765 40.424C89.4765 40.5947 88.9859 41.32 88.0045 42.6C87.0659 43.8373 85.8499 45.4373 84.3565 47.4C82.8632 49.32 81.2632 51.432 79.5565 53.736C79.7699 53.736 79.9832 53.736 80.1965 53.736C80.4525 53.736 80.6872 53.7573 80.9005 53.8C80.7299 53.8 80.5165 53.8 80.2605 53.8C80.0045 53.8 79.7485 53.8213 79.4925 53.864L79.3005 54.056C80.4099 53.9707 81.4979 53.992 82.5645 54.12C83.6739 54.248 84.5699 54.5467 85.2525 55.016L85.0605 54.76L85.2525 54.888C85.8925 55.2293 86.2125 55.6773 86.2125 56.232C86.2125 56.9573 85.7645 57.7467 84.8685 58.6C84.0152 59.4533 83.1832 60.2213 82.3725 60.904C82.2019 61.0747 81.8605 61.3093 81.3485 61.608C80.8792 61.9067 80.5165 62.056 80.2605 62.056C80.1325 62.056 80.0685 61.992 80.0685 61.864C80.0685 61.736 80.1965 61.48 80.4525 61.096C80.9219 60.3707 81.1565 59.7733 81.1565 59.304C81.1565 58.664 80.7725 58.2373 80.0045 58.024C79.2365 57.8107 78.1059 57.7253 76.6125 57.768C74.6925 60.3707 72.9645 62.952 71.4285 65.512C70.7459 66.5787 70.1059 67.688 69.5085 68.84C68.9112 69.992 68.6552 71.2293 68.7405 72.552V72.68C68.7405 73.192 68.6125 73.4693 68.3565 73.512C68.1432 73.5973 67.9725 73.6187 67.8445 73.576ZM61.8925 56.296C62.4472 56.168 63.3219 56.0187 64.5165 55.848C65.7539 55.6347 67.0979 55.4 68.5485 55.144C70.0419 54.888 71.3859 54.6533 72.5805 54.44C73.9459 52.5627 75.3112 50.7493 76.6765 49C78.0419 47.208 79.2792 45.5867 80.3885 44.136C81.4979 42.6853 82.3512 41.5333 82.9485 40.68C82.6925 40.936 82.0099 41.4693 80.9005 42.28C79.7912 43.048 78.4259 44.008 76.8045 45.16C75.1832 46.2693 73.4552 47.4853 71.6205 48.808C69.7859 50.088 68.0152 51.3893 66.3085 52.712C64.6019 53.992 63.1299 55.1867 61.8925 56.296ZM85.0605 54.76C84.0365 54.248 82.7139 53.928 81.0925 53.8H81.4765C82.0739 53.8 82.7352 53.864 83.4605 53.992C84.1859 54.12 84.7192 54.376 85.0605 54.76ZM66.7565 55.528L72.2605 54.888L72.5165 54.568C69.8712 54.9093 67.9512 55.2293 66.7565 55.528Z" fill="#F2860A"/>
</svg>
