<svg width="148" height="70" viewBox="0 0 148 70" fill="none" xmlns="http://www.w3.org/2000/svg">
<path d="M38.4 53.104C37.312 52.88 36.624 52.432 36.336 51.76C36.08 51.12 35.92 50.4 35.856 49.6L35.52 48.64C35.36 48.096 35.28 47.504 35.28 46.864C35.28 45.648 35.456 44.208 35.808 42.544C36.16 40.88 36.592 39.168 37.104 37.408C37.648 35.648 38.192 33.984 38.736 32.416C39.312 30.848 39.808 29.536 40.224 28.48C40.64 27.424 40.912 26.784 41.04 26.56C40.592 27.008 39.888 27.696 38.928 28.624C37.968 29.52 36.896 30.56 35.712 31.744C34.528 32.896 33.36 34.064 32.208 35.248C31.088 36.432 30.112 37.536 29.28 38.56C28.448 39.584 27.904 40.416 27.648 41.056C27.04 40.992 26.56 40.656 26.208 40.048C25.888 39.408 25.728 38.8 25.728 38.224C25.728 37.776 25.952 37.04 26.4 36.016C26.88 34.96 27.472 33.792 28.176 32.512C28.88 31.2 29.6 29.92 30.336 28.672C31.104 27.392 31.792 26.256 32.4 25.264C33.04 24.272 33.504 23.584 33.792 23.2C33.792 23.2 33.456 23.472 32.784 24.016C32.144 24.56 31.296 25.28 30.24 26.176C29.184 27.04 28.016 28.016 26.736 29.104C25.456 30.16 24.16 31.248 22.848 32.368C21.568 33.456 20.352 34.512 19.2 35.536C18.08 36.528 17.152 37.392 16.416 38.128C16.384 38.192 16.56 38.08 16.944 37.792C17.328 37.472 17.808 37.072 18.384 36.592C18.992 36.08 19.584 35.584 20.16 35.104C20.768 34.624 21.264 34.224 21.648 33.904C22.032 33.584 22.208 33.456 22.176 33.52C20.48 35.088 19.136 36.304 18.144 37.168C17.184 38.032 16.432 38.736 15.888 39.28C15.632 39.536 15.328 39.952 14.976 40.528C14.656 41.104 14.384 41.712 14.16 42.352C13.936 42.992 13.824 43.6 13.824 44.176C13.824 44.784 13.984 45.232 14.304 45.52C14.464 45.648 14.592 45.776 14.688 45.904C14.784 46.032 14.832 46.144 14.832 46.24C14.832 46.4 14.656 46.48 14.304 46.48C13.568 46.416 12.928 46.144 12.384 45.664C11.84 45.184 11.424 44.656 11.136 44.08C10.848 43.472 10.704 42.944 10.704 42.496C10.704 41.952 11.024 41.088 11.664 39.904C12.304 38.72 13.136 37.344 14.16 35.776C15.216 34.176 16.352 32.512 17.568 30.784C18.784 29.056 20 27.376 21.216 25.744C22.432 24.112 23.52 22.656 24.48 21.376C25.44 20.064 26.176 19.072 26.688 18.4C26.048 18.912 25.52 19.472 25.104 20.08C24.72 20.656 24.368 20.976 24.048 21.04C24.432 20.592 24.944 20 25.584 19.264C26.224 18.528 26.624 17.856 26.784 17.248C26.528 17.184 26.24 17.152 25.92 17.152C25.6 17.152 25.264 17.152 24.912 17.152C23.408 17.152 21.584 17.28 19.44 17.536C17.296 17.792 15.264 18.128 13.344 18.544C13.024 18.608 12.48 18.784 11.712 19.072C10.944 19.328 10.064 19.664 9.07202 20.08C8.11202 20.496 7.15202 20.976 6.19202 21.52C5.23202 22.064 4.40002 22.656 3.69602 23.296C3.02402 23.904 2.59202 24.544 2.40002 25.216C2.52802 25.472 2.59202 25.712 2.59202 25.936C2.59202 26.384 2.36802 26.608 1.92002 26.608C1.53602 26.608 1.12002 26.384 0.672023 25.936C0.224023 25.488 2.34246e-05 24.864 2.34246e-05 24.064C2.34246e-05 23.648 0.0640234 23.248 0.192023 22.864C0.512023 21.84 1.07202 20.944 1.87202 20.176C2.67202 19.408 3.60002 18.736 4.65602 18.16C5.74402 17.584 6.86402 17.104 8.01602 16.72C9.16802 16.336 10.256 16.032 11.28 15.808C12.304 15.552 13.568 15.36 15.072 15.232C16.576 15.104 18.144 15.04 19.776 15.04C21.024 15.04 22.272 15.088 23.52 15.184C24.768 15.28 25.936 15.44 27.024 15.664V15.52C27.024 15.296 27.152 15.184 27.408 15.184C27.472 15.184 27.632 15.216 27.888 15.28C28.272 15.408 28.768 15.632 29.376 15.952C29.984 16.272 30.512 16.656 30.96 17.104C31.44 17.52 31.68 17.968 31.68 18.448C31.68 18.608 31.664 18.736 31.632 18.832C30.576 19.952 29.376 21.28 28.032 22.816C26.72 24.352 25.376 25.984 24 27.712C22.624 29.408 21.296 31.136 20.016 32.896C21.136 31.936 22.384 30.864 23.76 29.68C25.168 28.464 26.576 27.264 27.984 26.08C29.424 24.896 30.736 23.808 31.92 22.816C33.136 21.824 34.096 21.056 34.8 20.512C35.12 20.512 35.536 20.672 36.048 20.992C36.592 21.312 37.072 21.68 37.488 22.096C37.936 22.512 38.16 22.896 38.16 23.248C37.872 23.728 37.456 24.368 36.912 25.168C36.368 25.968 35.792 26.816 35.184 27.712C34.576 28.608 33.984 29.472 33.408 30.304C32.832 31.136 32.352 31.84 31.968 32.416C32.096 32.32 32.48 31.936 33.12 31.264C33.792 30.592 34.592 29.792 35.52 28.864C36.48 27.936 37.44 27.024 38.4 26.128C39.392 25.2 40.256 24.432 40.992 23.824C41.76 23.184 42.256 22.848 42.48 22.816C42.64 22.816 42.928 22.976 43.344 23.296C43.76 23.584 44.192 23.952 44.64 24.4C45.088 24.848 45.44 25.28 45.696 25.696C45.984 26.08 46.08 26.352 45.984 26.512C44.544 28.4 43.296 30.432 42.24 32.608C41.216 34.784 40.352 36.912 39.648 38.992C40.192 37.648 40.752 36.32 41.328 35.008C41.904 33.696 42.464 32.496 43.008 31.408C43.584 30.32 44.064 29.456 44.448 28.816C44.512 28.752 44.544 28.72 44.544 28.72C44.576 28.72 44.56 28.816 44.496 29.008C44.432 29.2 44.32 29.424 44.16 29.68C43.968 30 43.648 30.64 43.2 31.6C42.784 32.56 42.304 33.696 41.76 35.008C41.216 36.32 40.672 37.664 40.128 39.04C39.616 40.416 39.152 41.728 38.736 42.976C38.352 44.192 38.096 45.184 37.968 45.952C37.744 47.04 37.584 47.792 37.488 48.208C37.424 48.656 37.376 48.688 37.344 48.304L37.2 49.552C37.68 49.616 38.128 49.696 38.544 49.792C38.992 49.92 39.216 50.016 39.216 50.08C40.112 50.208 40.768 50.4 41.184 50.656C41.6 50.944 41.808 51.232 41.808 51.52C41.808 51.84 41.52 52.144 40.944 52.432C40.368 52.752 39.52 52.976 38.4 53.104ZM37.344 48.208C37.536 47.088 37.808 45.728 38.16 44.128C38.544 42.528 39.04 40.816 39.648 38.992C39.04 40.592 38.512 42.128 38.064 43.6C37.648 45.072 37.424 46.304 37.392 47.296C37.36 47.488 37.344 47.664 37.344 47.824C37.344 47.984 37.344 48.112 37.344 48.208ZM46.0354 46.816C45.8434 46.816 45.5394 46.592 45.1234 46.144C44.7394 45.728 44.3394 45.264 43.9234 44.752C43.5394 44.208 43.2514 43.808 43.0594 43.552C43.3474 42.304 43.8434 41.008 44.5474 39.664C45.2834 38.288 46.1314 36.944 47.0914 35.632C48.0514 34.32 49.0114 33.104 49.9714 31.984C50.9634 30.864 51.8274 29.92 52.5634 29.152C52.0194 29.568 51.4434 30.112 50.8354 30.784C50.2274 31.424 49.8114 31.856 49.5874 32.08C49.2034 32.464 48.8194 32.848 48.4354 33.232C48.0514 33.584 47.6994 33.936 47.3794 34.288C48.3394 33.104 49.2834 32.016 50.2114 31.024C51.1714 30.032 51.8594 29.376 52.2754 29.056C52.3714 28.96 52.4994 28.848 52.6594 28.72C52.8514 28.592 53.0594 28.512 53.2834 28.48L53.6674 28.048C54.5314 28.08 55.4594 28.352 56.4514 28.864C57.4434 29.344 58.2914 29.984 58.9954 30.784C59.7314 31.552 60.1154 32.432 60.1474 33.424C60.1474 33.552 60.0834 33.68 59.9554 33.808C59.8274 33.904 59.7314 33.84 59.6674 33.616C59.4434 33.136 59.1874 32.704 58.8994 32.32C58.6114 31.936 58.2914 31.632 57.9394 31.408C57.6194 31.216 57.2834 31.12 56.9314 31.12C56.5474 31.12 56.1954 31.248 55.8754 31.504C55.2354 31.984 54.4674 32.704 53.5714 33.664C52.7074 34.592 51.8274 35.6 50.9314 36.688C50.0674 37.776 49.2834 38.832 48.5794 39.856C47.9074 40.88 47.4434 41.728 47.1874 42.4C47.3794 42.176 47.7154 41.856 48.1954 41.44C48.6754 41.024 49.1874 40.608 49.7314 40.192C50.2754 39.744 50.7394 39.376 51.1234 39.088C51.2514 38.992 51.5234 38.8 51.9394 38.512C52.3554 38.224 52.7874 37.92 53.2354 37.6C53.7154 37.28 54.0994 37.04 54.3874 36.88C54.3874 36.944 54.1954 37.12 53.8114 37.408C53.4594 37.696 53.0274 38.016 52.5154 38.368C52.0034 38.72 51.5234 39.04 51.0754 39.328C50.6594 39.616 50.4034 39.808 50.3074 39.904C49.9554 40.224 49.5394 40.592 49.0594 41.008C48.6114 41.424 48.1954 41.808 47.8114 42.16C47.4274 42.512 47.1714 42.768 47.0434 42.928C46.9794 43.056 46.9634 43.136 46.9954 43.168C47.0274 43.2 47.0914 43.152 47.1874 43.024C47.4754 42.608 47.9074 42.16 48.4834 41.68C49.0594 41.2 49.6834 40.72 50.3554 40.24C51.0594 39.728 51.6834 39.264 52.2274 38.848C52.8674 38.368 53.4434 37.952 53.9554 37.6C54.4994 37.216 54.9794 36.864 55.3954 36.544C55.4274 35.872 55.6674 35.408 56.1154 35.152C56.5954 34.896 56.9634 34.816 57.2194 34.912C57.4114 34.976 57.6994 35.104 58.0834 35.296C58.4994 35.456 58.8674 35.664 59.1874 35.92C59.5074 36.144 59.6034 36.4 59.4754 36.688C59.2514 37.2 59.0754 38 58.9474 39.088C58.8514 40.144 58.8034 41.12 58.8034 42.016C58.8034 43.296 59.2034 43.936 60.0034 43.936C60.4194 43.936 60.9794 43.712 61.6834 43.264C61.9394 43.104 62.1314 43.024 62.2594 43.024C62.3554 43.024 62.4034 43.072 62.4034 43.168C62.4034 43.296 62.3234 43.488 62.1634 43.744C62.0034 43.968 61.8914 44.112 61.8274 44.176C61.4434 44.592 60.9794 44.976 60.4354 45.328C59.9234 45.648 59.3954 45.808 58.8514 45.808C58.6274 45.808 58.4034 45.776 58.1794 45.712C57.9554 45.648 57.7314 45.536 57.5074 45.376C56.7074 44.832 56.1314 44 55.7794 42.88C55.4594 41.76 55.2994 40.8 55.2994 40C55.2994 39.808 55.2994 39.632 55.2994 39.472C55.3314 39.312 55.3634 39.168 55.3954 39.04C55.0434 39.328 54.4514 39.824 53.6194 40.528C52.8194 41.2 51.9234 41.968 50.9314 42.832C49.9394 43.664 48.9954 44.448 48.0994 45.184C47.2034 45.92 46.5154 46.464 46.0354 46.816ZM64.9583 47.44C64.7663 47.44 64.4783 47.344 64.0943 47.152C63.7103 46.992 63.3583 46.768 63.0383 46.48C62.7503 46.192 62.6063 45.92 62.6063 45.664C62.6063 45.504 62.6863 45.296 62.8463 45.04L62.8943 44.944C62.4463 44.336 62.1903 43.872 62.1263 43.552C62.5103 42.144 63.1343 40.72 63.9983 39.28C64.8623 37.808 65.7903 36.4 66.7823 35.056C66.2703 35.568 65.7903 36.096 65.3423 36.64C64.9263 37.152 64.5583 37.568 64.2383 37.888C64.7823 37.056 65.4863 36.176 66.3503 35.248C67.2143 34.32 67.9983 33.456 68.7023 32.656C68.3823 33.04 68.0623 33.424 67.7423 33.808C67.4223 34.192 67.1023 34.608 66.7823 35.056C66.9743 34.864 67.1503 34.672 67.3103 34.48C67.5023 34.288 67.6943 34.112 67.8863 33.952C68.0783 33.76 68.3823 33.44 68.7983 32.992C69.2463 32.544 69.7263 32.048 70.2383 31.504C70.7823 30.96 71.2783 30.464 71.7263 30.016C72.2063 29.568 72.5743 29.264 72.8303 29.104C73.2463 28.816 73.3423 28.672 73.1183 28.672C72.9583 28.672 72.6863 28.832 72.3023 29.152C71.9503 29.472 71.5983 29.808 71.2463 30.16C70.9263 30.512 70.7183 30.736 70.6223 30.832L68.7023 32.656C69.6303 31.6 70.4943 30.656 71.2943 29.824C72.1263 28.96 72.8143 28.272 73.3583 27.76C74.0303 27.792 74.7663 27.968 75.5663 28.288C76.3663 28.576 77.0543 29.008 77.6303 29.584C78.6223 30.512 79.2143 31.488 79.4063 32.512C80.5263 30.944 81.6623 29.36 82.8143 27.76C83.9983 26.128 85.1183 24.592 86.1743 23.152C87.2623 21.712 88.2063 20.464 89.0063 19.408C89.8063 18.32 90.3823 17.52 90.7343 17.008C90.6383 16.848 90.5423 16.704 90.4463 16.576C90.3503 16.448 90.3023 16.336 90.3023 16.24C90.3023 16.048 90.5743 15.968 91.1183 16C91.5663 16.032 92.0783 16.224 92.6543 16.576C93.2623 16.928 93.7743 17.328 94.1903 17.776C94.6063 18.192 94.7503 18.576 94.6223 18.928C94.2383 19.312 93.6143 19.984 92.7503 20.944C91.8863 21.904 90.8623 23.04 89.6783 24.352C88.5263 25.664 87.3103 27.072 86.0303 28.576C84.7503 30.048 83.5023 31.504 82.2863 32.944C82.0943 33.168 81.7743 33.6 81.3263 34.24C80.8783 34.88 80.3663 35.648 79.7903 36.544C79.2143 37.408 78.6543 38.336 78.1103 39.328C77.5983 40.288 77.1663 41.232 76.8143 42.16C76.4623 43.056 76.2863 43.824 76.2863 44.464C76.2863 45.328 76.5903 45.84 77.1983 46C77.6143 46.128 77.8223 46.256 77.8223 46.384C77.8223 46.544 77.5983 46.624 77.1503 46.624C76.7983 46.624 76.4143 46.56 75.9983 46.432C75.2303 46.208 74.6863 45.84 74.3663 45.328C74.0783 44.784 73.9343 44.192 73.9343 43.552C73.9343 42.592 74.1423 41.6 74.5583 40.576C75.0063 39.52 75.4223 38.64 75.8063 37.936C74.8143 38.864 73.7103 39.904 72.4943 41.056C71.2783 42.176 70.1103 43.216 68.9903 44.176C69.0543 44.176 69.1183 44.208 69.1823 44.272C69.3103 44.336 69.1983 44.544 68.8463 44.896C68.5263 45.216 68.0943 45.584 67.5503 46C67.0063 46.384 66.4783 46.72 65.9663 47.008C65.4863 47.296 65.1503 47.44 64.9583 47.44ZM66.6863 43.696C67.1343 43.408 67.7583 42.976 68.5583 42.4C69.3583 41.792 70.2543 41.104 71.2463 40.336C72.2703 39.536 73.3103 38.704 74.3663 37.84C75.4223 36.944 76.3983 36.096 77.2943 35.296C77.1663 35.232 77.1023 35.088 77.1023 34.864C77.1023 34.64 77.1663 34.4 77.2943 34.144C77.5823 33.6 77.7903 33.12 77.9183 32.704C78.0463 32.288 78.1103 31.92 78.1103 31.6C78.1103 30.832 77.8063 30.448 77.1983 30.448C76.7183 30.448 76.1743 30.688 75.5663 31.168C75.0223 31.584 74.3343 32.224 73.5023 33.088C72.6703 33.92 71.8063 34.864 70.9103 35.92C70.0463 36.944 69.2303 37.968 68.4623 38.992C67.7263 39.984 67.1503 40.88 66.7343 41.68C66.3503 42.448 66.2223 43.008 66.3503 43.36L73.5983 38.032C73.6623 37.968 73.7103 37.92 73.7423 37.888C73.8063 37.856 73.8383 37.84 73.8383 37.84C73.8703 37.84 73.8063 37.936 73.6463 38.128C73.4863 38.288 73.3263 38.448 73.1663 38.608C72.7183 38.96 72.0783 39.456 71.2463 40.096C70.4143 40.704 69.5663 41.328 68.7023 41.968C67.8703 42.576 67.1663 43.12 66.5903 43.6C66.4623 43.696 66.3983 43.76 66.3983 43.792C66.4303 43.824 66.5263 43.792 66.6863 43.696ZM87.0559 46.336C86.3519 46.336 85.5999 46.064 84.7999 45.52C83.9999 44.976 83.3119 44.336 82.7359 43.6C82.1919 42.864 81.9199 42.192 81.9199 41.584C81.9199 40.432 82.2559 39.2 82.9279 37.888C83.6319 36.544 84.5279 35.232 85.6159 33.952C86.7359 32.672 87.9199 31.536 89.1679 30.544C90.4159 29.552 91.6159 28.832 92.7679 28.384C93.0879 28.256 93.3759 28.176 93.6319 28.144C93.8879 28.112 94.0799 28.096 94.2079 28.096C94.5919 28.096 95.0399 28.368 95.5519 28.912C96.0639 29.424 96.5279 29.984 96.9439 30.592C97.3599 31.2 97.5999 31.664 97.6639 31.984C97.6639 32.496 97.3599 33.12 96.7519 33.856C96.1759 34.56 95.4079 35.296 94.4479 36.064C93.4879 36.8 92.4479 37.488 91.3279 38.128C90.2399 38.768 89.1839 39.28 88.1599 39.664C87.1359 40.016 86.2559 40.176 85.5199 40.144C85.0079 41.072 84.7519 41.84 84.7519 42.448C84.7519 42.768 84.8319 43.056 84.9919 43.312C85.1519 43.536 85.4719 43.632 85.9519 43.6C86.7199 43.344 87.6799 42.88 88.8319 42.208C89.9839 41.536 91.2159 40.784 92.5279 39.952C93.8719 39.088 95.1839 38.256 96.4639 37.456C97.7759 36.624 98.9439 35.936 99.9679 35.392C100.512 35.104 100.912 34.96 101.168 34.96C101.392 34.96 101.504 35.04 101.504 35.2C101.504 35.328 101.36 35.536 101.072 35.824C100.816 36.112 100.416 36.4 99.8719 36.688C99.5839 36.848 99.2639 37.04 98.9119 37.264C98.5599 37.488 98.1919 37.744 97.8079 38.032C96.9119 38.672 95.9519 39.408 94.9279 40.24C93.9359 41.072 92.9279 41.904 91.9039 42.736C90.9119 43.568 89.9839 44.304 89.1199 44.944C88.2879 45.584 87.5999 46.048 87.0559 46.336ZM86.5279 38.56C87.4879 38.208 88.5119 37.712 89.5999 37.072C90.6879 36.432 91.7119 35.76 92.6719 35.056C93.6319 34.32 94.3999 33.664 94.9759 33.088L95.2159 32.848C95.2159 32.784 95.0239 32.896 94.6399 33.184L90.6079 36.16C90.5759 36.192 90.5279 36.208 90.4639 36.208C90.4319 36.208 90.4479 36.176 90.5119 36.112C90.5759 36.016 90.6879 35.92 90.8479 35.824C91.4879 35.376 92.1439 34.88 92.8159 34.336C93.4879 33.76 94.1279 33.216 94.7359 32.704C95.5039 32.096 95.8879 31.728 95.8879 31.6C95.1519 31.6 94.2079 31.952 93.0559 32.656C91.9039 33.36 90.7359 34.24 89.5519 35.296C88.3999 36.352 87.3919 37.44 86.5279 38.56ZM130.626 46.576C130.018 46.192 129.49 45.728 129.042 45.184C128.594 44.608 128.418 44.112 128.514 43.696C128.578 43.376 128.786 42.88 129.138 42.208C129.522 41.536 129.97 40.784 130.482 39.952C130.994 39.12 131.506 38.272 132.018 37.408C132.562 36.544 133.042 35.776 133.458 35.104C133.522 35.008 133.426 35.136 133.17 35.488C132.946 35.808 132.642 36.24 132.258 36.784C131.906 37.296 131.554 37.824 131.202 38.368C130.882 38.88 130.642 39.264 130.482 39.52C130.482 39.36 130.61 39.056 130.866 38.608C131.154 38.16 131.474 37.68 131.826 37.168C132.178 36.624 132.514 36.112 132.834 35.632C133.154 35.152 133.378 34.816 133.506 34.624C132.642 35.584 131.65 36.672 130.53 37.888C129.41 39.072 128.29 40.24 127.17 41.392C126.082 42.544 125.106 43.552 124.242 44.416C123.41 45.28 122.85 45.856 122.562 46.144C121.698 45.856 121.09 45.408 120.738 44.8C120.386 44.192 120.21 43.6 120.21 43.024C120.21 42.704 120.258 42.4 120.354 42.112C120.706 41.376 121.186 40.464 121.794 39.376C122.434 38.256 123.106 37.12 123.81 35.968C124.514 34.816 125.17 33.744 125.778 32.752C126.386 31.728 126.85 30.944 127.17 30.4C127.138 30.176 127.026 29.904 126.834 29.584C126.674 29.264 126.594 28.992 126.594 28.768C126.594 28.512 126.818 28.384 127.266 28.384C127.362 28.384 127.474 28.384 127.602 28.384C127.762 28.384 127.938 28.416 128.13 28.48C128.354 28.512 128.706 28.608 129.186 28.768C129.666 28.928 130.098 29.168 130.482 29.488C130.898 29.776 131.106 30.176 131.106 30.688C131.106 31.04 130.994 31.392 130.77 31.744C130.386 32.192 129.922 32.832 129.378 33.664C128.866 34.496 128.338 35.376 127.794 36.304C127.282 37.232 126.802 38.096 126.354 38.896C125.938 39.664 125.65 40.224 125.49 40.576C125.746 40.416 126.21 40.016 126.882 39.376C127.554 38.736 128.322 37.968 129.186 37.072C130.082 36.176 130.978 35.28 131.874 34.384C132.77 33.456 133.57 32.672 134.274 32.032C134.274 31.904 134.434 31.568 134.754 31.024C135.106 30.448 135.506 29.84 135.954 29.2C136.434 28.56 136.834 28.096 137.154 27.808C137.57 27.968 138.018 28.192 138.498 28.48C139.01 28.736 139.442 29.024 139.794 29.344C140.178 29.632 140.37 29.92 140.37 30.208C140.37 30.336 140.322 30.48 140.226 30.64C139.17 32.112 138.178 33.488 137.25 34.768C136.322 36.016 135.554 37.056 134.946 37.888C134.338 38.72 133.986 39.248 133.89 39.472C134.146 39.248 134.434 39.008 134.754 38.752C135.266 38.272 136.002 37.744 136.962 37.168C138.146 36.4 139.506 35.616 141.042 34.816C142.61 33.984 144.258 33.296 145.986 32.752C146.274 32.656 146.498 32.608 146.658 32.608C146.946 32.608 147.01 32.736 146.85 32.992C146.69 33.216 146.434 33.472 146.082 33.76C145.762 34.048 145.426 34.272 145.074 34.432C143.346 35.296 141.714 36.224 140.178 37.216C138.642 38.208 137.234 39.312 135.954 40.528C134.994 41.424 134.114 42.416 133.314 43.504C132.514 44.56 131.618 45.584 130.626 46.576ZM134.514 38.992C134.514 39.024 134.61 39.008 134.802 38.944C134.994 38.848 135.138 38.768 135.234 38.704C135.906 38.192 136.754 37.648 137.778 37.072C138.834 36.464 139.858 35.904 140.85 35.392C141.842 34.88 142.562 34.528 143.01 34.336C143.266 34.24 143.602 34.08 144.018 33.856C144.466 33.632 144.61 33.552 144.45 33.616C143.97 33.744 143.298 34 142.434 34.384C141.602 34.736 140.69 35.168 139.698 35.68C138.738 36.16 137.826 36.656 136.962 37.168C136.546 37.456 136.146 37.744 135.762 38.032C135.41 38.288 135.074 38.528 134.754 38.752C134.69 38.816 134.626 38.88 134.562 38.944L134.514 38.992Z" fill="white"/>
<path d="M106.196 46.432C105.684 46.272 105.252 45.984 104.9 45.568C104.548 45.12 104.276 44.656 104.084 44.176C103.924 43.664 103.844 43.248 103.844 42.928C103.844 42.096 104.196 40.992 104.9 39.616C105.604 38.24 106.5 36.768 107.588 35.2C106.276 35.424 105.012 35.68 103.796 35.968C102.58 36.256 101.748 36.496 101.3 36.688C101.236 36.72 101.156 36.752 101.06 36.784C100.964 36.784 100.884 36.784 100.82 36.784C100.468 36.784 100.116 36.656 99.7639 36.4C99.4439 36.144 99.1719 35.856 98.9479 35.536C98.7239 35.216 98.5959 34.976 98.5639 34.816C98.4679 34.24 98.5959 33.664 98.9479 33.088C99.3319 32.512 99.7959 31.968 100.34 31.456C100.916 30.944 101.46 30.512 101.972 30.16C102.484 29.808 102.836 29.552 103.028 29.392C104.116 28.592 105.332 27.712 106.676 26.752C108.052 25.792 109.428 24.848 110.804 23.92C112.18 22.96 113.444 22.08 114.596 21.28C115.748 20.48 116.676 19.84 117.38 19.36C118.116 18.88 118.5 18.64 118.532 18.64C119.236 18.64 119.876 18.864 120.452 19.312C121.06 19.76 121.54 20.224 121.892 20.704C122.244 21.152 122.42 21.44 122.42 21.568C122.42 21.696 122.052 22.24 121.316 23.2C120.612 24.128 119.7 25.328 118.58 26.8C117.46 28.24 116.26 29.824 114.98 31.552C115.14 31.552 115.3 31.552 115.46 31.552C115.652 31.552 115.828 31.568 115.988 31.6C115.86 31.6 115.7 31.6 115.508 31.6C115.316 31.6 115.124 31.616 114.932 31.648L114.788 31.792C115.62 31.728 116.436 31.744 117.236 31.84C118.068 31.936 118.74 32.16 119.252 32.512L119.108 32.32L119.252 32.416C119.732 32.672 119.972 33.008 119.972 33.424C119.972 33.968 119.636 34.56 118.964 35.2C118.324 35.84 117.7 36.416 117.092 36.928C116.964 37.056 116.708 37.232 116.324 37.456C115.972 37.68 115.7 37.792 115.508 37.792C115.412 37.792 115.364 37.744 115.364 37.648C115.364 37.552 115.46 37.36 115.652 37.072C116.004 36.528 116.18 36.08 116.18 35.728C116.18 35.248 115.892 34.928 115.316 34.768C114.74 34.608 113.892 34.544 112.772 34.576C111.332 36.528 110.036 38.464 108.884 40.384C108.372 41.184 107.892 42.016 107.444 42.88C106.996 43.744 106.804 44.672 106.868 45.664V45.76C106.868 46.144 106.772 46.352 106.58 46.384C106.42 46.448 106.292 46.464 106.196 46.432ZM101.732 33.472C102.148 33.376 102.804 33.264 103.7 33.136C104.628 32.976 105.636 32.8 106.724 32.608C107.844 32.416 108.852 32.24 109.748 32.08C110.772 30.672 111.796 29.312 112.82 28C113.844 26.656 114.772 25.44 115.604 24.352C116.436 23.264 117.076 22.4 117.524 21.76C117.332 21.952 116.82 22.352 115.988 22.96C115.156 23.536 114.132 24.256 112.916 25.12C111.7 25.952 110.404 26.864 109.028 27.856C107.652 28.816 106.324 29.792 105.044 30.784C103.764 31.744 102.66 32.64 101.732 33.472ZM119.108 32.32C118.34 31.936 117.348 31.696 116.132 31.6H116.42C116.868 31.6 117.364 31.648 117.908 31.744C118.452 31.84 118.852 32.032 119.108 32.32ZM105.38 32.896L109.508 32.416L109.7 32.176C107.716 32.432 106.276 32.672 105.38 32.896Z" fill="#F2860A"/>
<g opacity="0.4">
<path d="M38.4 56.104C37.312 55.88 36.624 55.432 36.336 54.76C36.08 54.12 35.92 53.4 35.856 52.6L35.52 51.64C35.36 51.096 35.28 50.504 35.28 49.864C35.28 48.648 35.456 47.208 35.808 45.544C36.16 43.88 36.592 42.168 37.104 40.408C37.648 38.648 38.192 36.984 38.736 35.416C39.312 33.848 39.808 32.536 40.224 31.48C40.64 30.424 40.912 29.784 41.04 29.56C40.592 30.008 39.888 30.696 38.928 31.624C37.968 32.52 36.896 33.56 35.712 34.744C34.528 35.896 33.36 37.064 32.208 38.248C31.088 39.432 30.112 40.536 29.28 41.56C28.448 42.584 27.904 43.416 27.648 44.056C27.04 43.992 26.56 43.656 26.208 43.048C25.888 42.408 25.728 41.8 25.728 41.224C25.728 40.776 25.952 40.04 26.4 39.016C26.88 37.96 27.472 36.792 28.176 35.512C28.88 34.2 29.6 32.92 30.336 31.672C31.104 30.392 31.792 29.256 32.4 28.264C33.04 27.272 33.504 26.584 33.792 26.2C33.792 26.2 33.456 26.472 32.784 27.016C32.144 27.56 31.296 28.28 30.24 29.176C29.184 30.04 28.016 31.016 26.736 32.104C25.456 33.16 24.16 34.248 22.848 35.368C21.568 36.456 20.352 37.512 19.2 38.536C18.08 39.528 17.152 40.392 16.416 41.128C16.384 41.192 16.56 41.08 16.944 40.792C17.328 40.472 17.808 40.072 18.384 39.592C18.992 39.08 19.584 38.584 20.16 38.104C20.768 37.624 21.264 37.224 21.648 36.904C22.032 36.584 22.208 36.456 22.176 36.52C20.48 38.088 19.136 39.304 18.144 40.168C17.184 41.032 16.432 41.736 15.888 42.28C15.632 42.536 15.328 42.952 14.976 43.528C14.656 44.104 14.384 44.712 14.16 45.352C13.936 45.992 13.824 46.6 13.824 47.176C13.824 47.784 13.984 48.232 14.304 48.52C14.464 48.648 14.592 48.776 14.688 48.904C14.784 49.032 14.832 49.144 14.832 49.24C14.832 49.4 14.656 49.48 14.304 49.48C13.568 49.416 12.928 49.144 12.384 48.664C11.84 48.184 11.424 47.656 11.136 47.08C10.848 46.472 10.704 45.944 10.704 45.496C10.704 44.952 11.024 44.088 11.664 42.904C12.304 41.72 13.136 40.344 14.16 38.776C15.216 37.176 16.352 35.512 17.568 33.784C18.784 32.056 20 30.376 21.216 28.744C22.432 27.112 23.52 25.656 24.48 24.376C25.44 23.064 26.176 22.072 26.688 21.4C26.048 21.912 25.52 22.472 25.104 23.08C24.72 23.656 24.368 23.976 24.048 24.04C24.432 23.592 24.944 23 25.584 22.264C26.224 21.528 26.624 20.856 26.784 20.248C26.528 20.184 26.24 20.152 25.92 20.152C25.6 20.152 25.264 20.152 24.912 20.152C23.408 20.152 21.584 20.28 19.44 20.536C17.296 20.792 15.264 21.128 13.344 21.544C13.024 21.608 12.48 21.784 11.712 22.072C10.944 22.328 10.064 22.664 9.07202 23.08C8.11202 23.496 7.15202 23.976 6.19202 24.52C5.23202 25.064 4.40002 25.656 3.69602 26.296C3.02402 26.904 2.59202 27.544 2.40002 28.216C2.52802 28.472 2.59202 28.712 2.59202 28.936C2.59202 29.384 2.36802 29.608 1.92002 29.608C1.53602 29.608 1.12002 29.384 0.672023 28.936C0.224023 28.488 2.34246e-05 27.864 2.34246e-05 27.064C2.34246e-05 26.648 0.0640234 26.248 0.192023 25.864C0.512023 24.84 1.07202 23.944 1.87202 23.176C2.67202 22.408 3.60002 21.736 4.65602 21.16C5.74402 20.584 6.86402 20.104 8.01602 19.72C9.16802 19.336 10.256 19.032 11.28 18.808C12.304 18.552 13.568 18.36 15.072 18.232C16.576 18.104 18.144 18.04 19.776 18.04C21.024 18.04 22.272 18.088 23.52 18.184C24.768 18.28 25.936 18.44 27.024 18.664V18.52C27.024 18.296 27.152 18.184 27.408 18.184C27.472 18.184 27.632 18.216 27.888 18.28C28.272 18.408 28.768 18.632 29.376 18.952C29.984 19.272 30.512 19.656 30.96 20.104C31.44 20.52 31.68 20.968 31.68 21.448C31.68 21.608 31.664 21.736 31.632 21.832C30.576 22.952 29.376 24.28 28.032 25.816C26.72 27.352 25.376 28.984 24 30.712C22.624 32.408 21.296 34.136 20.016 35.896C21.136 34.936 22.384 33.864 23.76 32.68C25.168 31.464 26.576 30.264 27.984 29.08C29.424 27.896 30.736 26.808 31.92 25.816C33.136 24.824 34.096 24.056 34.8 23.512C35.12 23.512 35.536 23.672 36.048 23.992C36.592 24.312 37.072 24.68 37.488 25.096C37.936 25.512 38.16 25.896 38.16 26.248C37.872 26.728 37.456 27.368 36.912 28.168C36.368 28.968 35.792 29.816 35.184 30.712C34.576 31.608 33.984 32.472 33.408 33.304C32.832 34.136 32.352 34.84 31.968 35.416C32.096 35.32 32.48 34.936 33.12 34.264C33.792 33.592 34.592 32.792 35.52 31.864C36.48 30.936 37.44 30.024 38.4 29.128C39.392 28.2 40.256 27.432 40.992 26.824C41.76 26.184 42.256 25.848 42.48 25.816C42.64 25.816 42.928 25.976 43.344 26.296C43.76 26.584 44.192 26.952 44.64 27.4C45.088 27.848 45.44 28.28 45.696 28.696C45.984 29.08 46.08 29.352 45.984 29.512C44.544 31.4 43.296 33.432 42.24 35.608C41.216 37.784 40.352 39.912 39.648 41.992C40.192 40.648 40.752 39.32 41.328 38.008C41.904 36.696 42.464 35.496 43.008 34.408C43.584 33.32 44.064 32.456 44.448 31.816C44.512 31.752 44.544 31.72 44.544 31.72C44.576 31.72 44.56 31.816 44.496 32.008C44.432 32.2 44.32 32.424 44.16 32.68C43.968 33 43.648 33.64 43.2 34.6C42.784 35.56 42.304 36.696 41.76 38.008C41.216 39.32 40.672 40.664 40.128 42.04C39.616 43.416 39.152 44.728 38.736 45.976C38.352 47.192 38.096 48.184 37.968 48.952C37.744 50.04 37.584 50.792 37.488 51.208C37.424 51.656 37.376 51.688 37.344 51.304L37.2 52.552C37.68 52.616 38.128 52.696 38.544 52.792C38.992 52.92 39.216 53.016 39.216 53.08C40.112 53.208 40.768 53.4 41.184 53.656C41.6 53.944 41.808 54.232 41.808 54.52C41.808 54.84 41.52 55.144 40.944 55.432C40.368 55.752 39.52 55.976 38.4 56.104ZM37.344 51.208C37.536 50.088 37.808 48.728 38.16 47.128C38.544 45.528 39.04 43.816 39.648 41.992C39.04 43.592 38.512 45.128 38.064 46.6C37.648 48.072 37.424 49.304 37.392 50.296C37.36 50.488 37.344 50.664 37.344 50.824C37.344 50.984 37.344 51.112 37.344 51.208ZM46.0354 49.816C45.8434 49.816 45.5394 49.592 45.1234 49.144C44.7394 48.728 44.3394 48.264 43.9234 47.752C43.5394 47.208 43.2514 46.808 43.0594 46.552C43.3474 45.304 43.8434 44.008 44.5474 42.664C45.2834 41.288 46.1314 39.944 47.0914 38.632C48.0514 37.32 49.0114 36.104 49.9714 34.984C50.9634 33.864 51.8274 32.92 52.5634 32.152C52.0194 32.568 51.4434 33.112 50.8354 33.784C50.2274 34.424 49.8114 34.856 49.5874 35.08C49.2034 35.464 48.8194 35.848 48.4354 36.232C48.0514 36.584 47.6994 36.936 47.3794 37.288C48.3394 36.104 49.2834 35.016 50.2114 34.024C51.1714 33.032 51.8594 32.376 52.2754 32.056C52.3714 31.96 52.4994 31.848 52.6594 31.72C52.8514 31.592 53.0594 31.512 53.2834 31.48L53.6674 31.048C54.5314 31.08 55.4594 31.352 56.4514 31.864C57.4434 32.344 58.2914 32.984 58.9954 33.784C59.7314 34.552 60.1154 35.432 60.1474 36.424C60.1474 36.552 60.0834 36.68 59.9554 36.808C59.8274 36.904 59.7314 36.84 59.6674 36.616C59.4434 36.136 59.1874 35.704 58.8994 35.32C58.6114 34.936 58.2914 34.632 57.9394 34.408C57.6194 34.216 57.2834 34.12 56.9314 34.12C56.5474 34.12 56.1954 34.248 55.8754 34.504C55.2354 34.984 54.4674 35.704 53.5714 36.664C52.7074 37.592 51.8274 38.6 50.9314 39.688C50.0674 40.776 49.2834 41.832 48.5794 42.856C47.9074 43.88 47.4434 44.728 47.1874 45.4C47.3794 45.176 47.7154 44.856 48.1954 44.44C48.6754 44.024 49.1874 43.608 49.7314 43.192C50.2754 42.744 50.7394 42.376 51.1234 42.088C51.2514 41.992 51.5234 41.8 51.9394 41.512C52.3554 41.224 52.7874 40.92 53.2354 40.6C53.7154 40.28 54.0994 40.04 54.3874 39.88C54.3874 39.944 54.1954 40.12 53.8114 40.408C53.4594 40.696 53.0274 41.016 52.5154 41.368C52.0034 41.72 51.5234 42.04 51.0754 42.328C50.6594 42.616 50.4034 42.808 50.3074 42.904C49.9554 43.224 49.5394 43.592 49.0594 44.008C48.6114 44.424 48.1954 44.808 47.8114 45.16C47.4274 45.512 47.1714 45.768 47.0434 45.928C46.9794 46.056 46.9634 46.136 46.9954 46.168C47.0274 46.2 47.0914 46.152 47.1874 46.024C47.4754 45.608 47.9074 45.16 48.4834 44.68C49.0594 44.2 49.6834 43.72 50.3554 43.24C51.0594 42.728 51.6834 42.264 52.2274 41.848C52.8674 41.368 53.4434 40.952 53.9554 40.6C54.4994 40.216 54.9794 39.864 55.3954 39.544C55.4274 38.872 55.6674 38.408 56.1154 38.152C56.5954 37.896 56.9634 37.816 57.2194 37.912C57.4114 37.976 57.6994 38.104 58.0834 38.296C58.4994 38.456 58.8674 38.664 59.1874 38.92C59.5074 39.144 59.6034 39.4 59.4754 39.688C59.2514 40.2 59.0754 41 58.9474 42.088C58.8514 43.144 58.8034 44.12 58.8034 45.016C58.8034 46.296 59.2034 46.936 60.0034 46.936C60.4194 46.936 60.9794 46.712 61.6834 46.264C61.9394 46.104 62.1314 46.024 62.2594 46.024C62.3554 46.024 62.4034 46.072 62.4034 46.168C62.4034 46.296 62.3234 46.488 62.1634 46.744C62.0034 46.968 61.8914 47.112 61.8274 47.176C61.4434 47.592 60.9794 47.976 60.4354 48.328C59.9234 48.648 59.3954 48.808 58.8514 48.808C58.6274 48.808 58.4034 48.776 58.1794 48.712C57.9554 48.648 57.7314 48.536 57.5074 48.376C56.7074 47.832 56.1314 47 55.7794 45.88C55.4594 44.76 55.2994 43.8 55.2994 43C55.2994 42.808 55.2994 42.632 55.2994 42.472C55.3314 42.312 55.3634 42.168 55.3954 42.04C55.0434 42.328 54.4514 42.824 53.6194 43.528C52.8194 44.2 51.9234 44.968 50.9314 45.832C49.9394 46.664 48.9954 47.448 48.0994 48.184C47.2034 48.92 46.5154 49.464 46.0354 49.816ZM64.9583 50.44C64.7663 50.44 64.4783 50.344 64.0943 50.152C63.7103 49.992 63.3583 49.768 63.0383 49.48C62.7503 49.192 62.6063 48.92 62.6063 48.664C62.6063 48.504 62.6863 48.296 62.8463 48.04L62.8943 47.944C62.4463 47.336 62.1903 46.872 62.1263 46.552C62.5103 45.144 63.1343 43.72 63.9983 42.28C64.8623 40.808 65.7903 39.4 66.7823 38.056C66.2703 38.568 65.7903 39.096 65.3423 39.64C64.9263 40.152 64.5583 40.568 64.2383 40.888C64.7823 40.056 65.4863 39.176 66.3503 38.248C67.2143 37.32 67.9983 36.456 68.7023 35.656C68.3823 36.04 68.0623 36.424 67.7423 36.808C67.4223 37.192 67.1023 37.608 66.7823 38.056C66.9743 37.864 67.1503 37.672 67.3103 37.48C67.5023 37.288 67.6943 37.112 67.8863 36.952C68.0783 36.76 68.3823 36.44 68.7983 35.992C69.2463 35.544 69.7263 35.048 70.2383 34.504C70.7823 33.96 71.2783 33.464 71.7263 33.016C72.2063 32.568 72.5743 32.264 72.8303 32.104C73.2463 31.816 73.3423 31.672 73.1183 31.672C72.9583 31.672 72.6863 31.832 72.3023 32.152C71.9503 32.472 71.5983 32.808 71.2463 33.16C70.9263 33.512 70.7183 33.736 70.6223 33.832L68.7023 35.656C69.6303 34.6 70.4943 33.656 71.2943 32.824C72.1263 31.96 72.8143 31.272 73.3583 30.76C74.0303 30.792 74.7663 30.968 75.5663 31.288C76.3663 31.576 77.0543 32.008 77.6303 32.584C78.6223 33.512 79.2143 34.488 79.4063 35.512C80.5263 33.944 81.6623 32.36 82.8143 30.76C83.9983 29.128 85.1183 27.592 86.1743 26.152C87.2623 24.712 88.2063 23.464 89.0063 22.408C89.8063 21.32 90.3823 20.52 90.7343 20.008C90.6383 19.848 90.5423 19.704 90.4463 19.576C90.3503 19.448 90.3023 19.336 90.3023 19.24C90.3023 19.048 90.5743 18.968 91.1183 19C91.5663 19.032 92.0783 19.224 92.6543 19.576C93.2623 19.928 93.7743 20.328 94.1903 20.776C94.6063 21.192 94.7503 21.576 94.6223 21.928C94.2383 22.312 93.6143 22.984 92.7503 23.944C91.8863 24.904 90.8623 26.04 89.6783 27.352C88.5263 28.664 87.3103 30.072 86.0303 31.576C84.7503 33.048 83.5023 34.504 82.2863 35.944C82.0943 36.168 81.7743 36.6 81.3263 37.24C80.8783 37.88 80.3663 38.648 79.7903 39.544C79.2143 40.408 78.6543 41.336 78.1103 42.328C77.5983 43.288 77.1663 44.232 76.8143 45.16C76.4623 46.056 76.2863 46.824 76.2863 47.464C76.2863 48.328 76.5903 48.84 77.1983 49C77.6143 49.128 77.8223 49.256 77.8223 49.384C77.8223 49.544 77.5983 49.624 77.1503 49.624C76.7983 49.624 76.4143 49.56 75.9983 49.432C75.2303 49.208 74.6863 48.84 74.3663 48.328C74.0783 47.784 73.9343 47.192 73.9343 46.552C73.9343 45.592 74.1423 44.6 74.5583 43.576C75.0063 42.52 75.4223 41.64 75.8063 40.936C74.8143 41.864 73.7103 42.904 72.4943 44.056C71.2783 45.176 70.1103 46.216 68.9903 47.176C69.0543 47.176 69.1183 47.208 69.1823 47.272C69.3103 47.336 69.1983 47.544 68.8463 47.896C68.5263 48.216 68.0943 48.584 67.5503 49C67.0063 49.384 66.4783 49.72 65.9663 50.008C65.4863 50.296 65.1503 50.44 64.9583 50.44ZM66.6863 46.696C67.1343 46.408 67.7583 45.976 68.5583 45.4C69.3583 44.792 70.2543 44.104 71.2463 43.336C72.2703 42.536 73.3103 41.704 74.3663 40.84C75.4223 39.944 76.3983 39.096 77.2943 38.296C77.1663 38.232 77.1023 38.088 77.1023 37.864C77.1023 37.64 77.1663 37.4 77.2943 37.144C77.5823 36.6 77.7903 36.12 77.9183 35.704C78.0463 35.288 78.1103 34.92 78.1103 34.6C78.1103 33.832 77.8063 33.448 77.1983 33.448C76.7183 33.448 76.1743 33.688 75.5663 34.168C75.0223 34.584 74.3343 35.224 73.5023 36.088C72.6703 36.92 71.8063 37.864 70.9103 38.92C70.0463 39.944 69.2303 40.968 68.4623 41.992C67.7263 42.984 67.1503 43.88 66.7343 44.68C66.3503 45.448 66.2223 46.008 66.3503 46.36L73.5983 41.032C73.6623 40.968 73.7103 40.92 73.7423 40.888C73.8063 40.856 73.8383 40.84 73.8383 40.84C73.8703 40.84 73.8063 40.936 73.6463 41.128C73.4863 41.288 73.3263 41.448 73.1663 41.608C72.7183 41.96 72.0783 42.456 71.2463 43.096C70.4143 43.704 69.5663 44.328 68.7023 44.968C67.8703 45.576 67.1663 46.12 66.5903 46.6C66.4623 46.696 66.3983 46.76 66.3983 46.792C66.4303 46.824 66.5263 46.792 66.6863 46.696ZM87.0559 49.336C86.3519 49.336 85.5999 49.064 84.7999 48.52C83.9999 47.976 83.3119 47.336 82.7359 46.6C82.1919 45.864 81.9199 45.192 81.9199 44.584C81.9199 43.432 82.2559 42.2 82.9279 40.888C83.6319 39.544 84.5279 38.232 85.6159 36.952C86.7359 35.672 87.9199 34.536 89.1679 33.544C90.4159 32.552 91.6159 31.832 92.7679 31.384C93.0879 31.256 93.3759 31.176 93.6319 31.144C93.8879 31.112 94.0799 31.096 94.2079 31.096C94.5919 31.096 95.0399 31.368 95.5519 31.912C96.0639 32.424 96.5279 32.984 96.9439 33.592C97.3599 34.2 97.5999 34.664 97.6639 34.984C97.6639 35.496 97.3599 36.12 96.7519 36.856C96.1759 37.56 95.4079 38.296 94.4479 39.064C93.4879 39.8 92.4479 40.488 91.3279 41.128C90.2399 41.768 89.1839 42.28 88.1599 42.664C87.1359 43.016 86.2559 43.176 85.5199 43.144C85.0079 44.072 84.7519 44.84 84.7519 45.448C84.7519 45.768 84.8319 46.056 84.9919 46.312C85.1519 46.536 85.4719 46.632 85.9519 46.6C86.7199 46.344 87.6799 45.88 88.8319 45.208C89.9839 44.536 91.2159 43.784 92.5279 42.952C93.8719 42.088 95.1839 41.256 96.4639 40.456C97.7759 39.624 98.9439 38.936 99.9679 38.392C100.512 38.104 100.912 37.96 101.168 37.96C101.392 37.96 101.504 38.04 101.504 38.2C101.504 38.328 101.36 38.536 101.072 38.824C100.816 39.112 100.416 39.4 99.8719 39.688C99.5839 39.848 99.2639 40.04 98.9119 40.264C98.5599 40.488 98.1919 40.744 97.8079 41.032C96.9119 41.672 95.9519 42.408 94.9279 43.24C93.9359 44.072 92.9279 44.904 91.9039 45.736C90.9119 46.568 89.9839 47.304 89.1199 47.944C88.2879 48.584 87.5999 49.048 87.0559 49.336ZM86.5279 41.56C87.4879 41.208 88.5119 40.712 89.5999 40.072C90.6879 39.432 91.7119 38.76 92.6719 38.056C93.6319 37.32 94.3999 36.664 94.9759 36.088L95.2159 35.848C95.2159 35.784 95.0239 35.896 94.6399 36.184L90.6079 39.16C90.5759 39.192 90.5279 39.208 90.4639 39.208C90.4319 39.208 90.4479 39.176 90.5119 39.112C90.5759 39.016 90.6879 38.92 90.8479 38.824C91.4879 38.376 92.1439 37.88 92.8159 37.336C93.4879 36.76 94.1279 36.216 94.7359 35.704C95.5039 35.096 95.8879 34.728 95.8879 34.6C95.1519 34.6 94.2079 34.952 93.0559 35.656C91.9039 36.36 90.7359 37.24 89.5519 38.296C88.3999 39.352 87.3919 40.44 86.5279 41.56ZM130.626 49.576C130.018 49.192 129.49 48.728 129.042 48.184C128.594 47.608 128.418 47.112 128.514 46.696C128.578 46.376 128.786 45.88 129.138 45.208C129.522 44.536 129.97 43.784 130.482 42.952C130.994 42.12 131.506 41.272 132.018 40.408C132.562 39.544 133.042 38.776 133.458 38.104C133.522 38.008 133.426 38.136 133.17 38.488C132.946 38.808 132.642 39.24 132.258 39.784C131.906 40.296 131.554 40.824 131.202 41.368C130.882 41.88 130.642 42.264 130.482 42.52C130.482 42.36 130.61 42.056 130.866 41.608C131.154 41.16 131.474 40.68 131.826 40.168C132.178 39.624 132.514 39.112 132.834 38.632C133.154 38.152 133.378 37.816 133.506 37.624C132.642 38.584 131.65 39.672 130.53 40.888C129.41 42.072 128.29 43.24 127.17 44.392C126.082 45.544 125.106 46.552 124.242 47.416C123.41 48.28 122.85 48.856 122.562 49.144C121.698 48.856 121.09 48.408 120.738 47.8C120.386 47.192 120.21 46.6 120.21 46.024C120.21 45.704 120.258 45.4 120.354 45.112C120.706 44.376 121.186 43.464 121.794 42.376C122.434 41.256 123.106 40.12 123.81 38.968C124.514 37.816 125.17 36.744 125.778 35.752C126.386 34.728 126.85 33.944 127.17 33.4C127.138 33.176 127.026 32.904 126.834 32.584C126.674 32.264 126.594 31.992 126.594 31.768C126.594 31.512 126.818 31.384 127.266 31.384C127.362 31.384 127.474 31.384 127.602 31.384C127.762 31.384 127.938 31.416 128.13 31.48C128.354 31.512 128.706 31.608 129.186 31.768C129.666 31.928 130.098 32.168 130.482 32.488C130.898 32.776 131.106 33.176 131.106 33.688C131.106 34.04 130.994 34.392 130.77 34.744C130.386 35.192 129.922 35.832 129.378 36.664C128.866 37.496 128.338 38.376 127.794 39.304C127.282 40.232 126.802 41.096 126.354 41.896C125.938 42.664 125.65 43.224 125.49 43.576C125.746 43.416 126.21 43.016 126.882 42.376C127.554 41.736 128.322 40.968 129.186 40.072C130.082 39.176 130.978 38.28 131.874 37.384C132.77 36.456 133.57 35.672 134.274 35.032C134.274 34.904 134.434 34.568 134.754 34.024C135.106 33.448 135.506 32.84 135.954 32.2C136.434 31.56 136.834 31.096 137.154 30.808C137.57 30.968 138.018 31.192 138.498 31.48C139.01 31.736 139.442 32.024 139.794 32.344C140.178 32.632 140.37 32.92 140.37 33.208C140.37 33.336 140.322 33.48 140.226 33.64C139.17 35.112 138.178 36.488 137.25 37.768C136.322 39.016 135.554 40.056 134.946 40.888C134.338 41.72 133.986 42.248 133.89 42.472C134.146 42.248 134.434 42.008 134.754 41.752C135.266 41.272 136.002 40.744 136.962 40.168C138.146 39.4 139.506 38.616 141.042 37.816C142.61 36.984 144.258 36.296 145.986 35.752C146.274 35.656 146.498 35.608 146.658 35.608C146.946 35.608 147.01 35.736 146.85 35.992C146.69 36.216 146.434 36.472 146.082 36.76C145.762 37.048 145.426 37.272 145.074 37.432C143.346 38.296 141.714 39.224 140.178 40.216C138.642 41.208 137.234 42.312 135.954 43.528C134.994 44.424 134.114 45.416 133.314 46.504C132.514 47.56 131.618 48.584 130.626 49.576ZM134.514 41.992C134.514 42.024 134.61 42.008 134.802 41.944C134.994 41.848 135.138 41.768 135.234 41.704C135.906 41.192 136.754 40.648 137.778 40.072C138.834 39.464 139.858 38.904 140.85 38.392C141.842 37.88 142.562 37.528 143.01 37.336C143.266 37.24 143.602 37.08 144.018 36.856C144.466 36.632 144.61 36.552 144.45 36.616C143.97 36.744 143.298 37 142.434 37.384C141.602 37.736 140.69 38.168 139.698 38.68C138.738 39.16 137.826 39.656 136.962 40.168C136.546 40.456 136.146 40.744 135.762 41.032C135.41 41.288 135.074 41.528 134.754 41.752C134.69 41.816 134.626 41.88 134.562 41.944L134.514 41.992Z" fill="white"/>
<path d="M106.196 49.432C105.684 49.272 105.252 48.984 104.9 48.568C104.548 48.12 104.276 47.656 104.084 47.176C103.924 46.664 103.844 46.248 103.844 45.928C103.844 45.096 104.196 43.992 104.9 42.616C105.604 41.24 106.5 39.768 107.588 38.2C106.276 38.424 105.012 38.68 103.796 38.968C102.58 39.256 101.748 39.496 101.3 39.688C101.236 39.72 101.156 39.752 101.06 39.784C100.964 39.784 100.884 39.784 100.82 39.784C100.468 39.784 100.116 39.656 99.7639 39.4C99.4439 39.144 99.1719 38.856 98.9479 38.536C98.7239 38.216 98.5959 37.976 98.5639 37.816C98.4679 37.24 98.5959 36.664 98.9479 36.088C99.3319 35.512 99.7959 34.968 100.34 34.456C100.916 33.944 101.46 33.512 101.972 33.16C102.484 32.808 102.836 32.552 103.028 32.392C104.116 31.592 105.332 30.712 106.676 29.752C108.052 28.792 109.428 27.848 110.804 26.92C112.18 25.96 113.444 25.08 114.596 24.28C115.748 23.48 116.676 22.84 117.38 22.36C118.116 21.88 118.5 21.64 118.532 21.64C119.236 21.64 119.876 21.864 120.452 22.312C121.06 22.76 121.54 23.224 121.892 23.704C122.244 24.152 122.42 24.44 122.42 24.568C122.42 24.696 122.052 25.24 121.316 26.2C120.612 27.128 119.7 28.328 118.58 29.8C117.46 31.24 116.26 32.824 114.98 34.552C115.14 34.552 115.3 34.552 115.46 34.552C115.652 34.552 115.828 34.568 115.988 34.6C115.86 34.6 115.7 34.6 115.508 34.6C115.316 34.6 115.124 34.616 114.932 34.648L114.788 34.792C115.62 34.728 116.436 34.744 117.236 34.84C118.068 34.936 118.74 35.16 119.252 35.512L119.108 35.32L119.252 35.416C119.732 35.672 119.972 36.008 119.972 36.424C119.972 36.968 119.636 37.56 118.964 38.2C118.324 38.84 117.7 39.416 117.092 39.928C116.964 40.056 116.708 40.232 116.324 40.456C115.972 40.68 115.7 40.792 115.508 40.792C115.412 40.792 115.364 40.744 115.364 40.648C115.364 40.552 115.46 40.36 115.652 40.072C116.004 39.528 116.18 39.08 116.18 38.728C116.18 38.248 115.892 37.928 115.316 37.768C114.74 37.608 113.892 37.544 112.772 37.576C111.332 39.528 110.036 41.464 108.884 43.384C108.372 44.184 107.892 45.016 107.444 45.88C106.996 46.744 106.804 47.672 106.868 48.664V48.76C106.868 49.144 106.772 49.352 106.58 49.384C106.42 49.448 106.292 49.464 106.196 49.432ZM101.732 36.472C102.148 36.376 102.804 36.264 103.7 36.136C104.628 35.976 105.636 35.8 106.724 35.608C107.844 35.416 108.852 35.24 109.748 35.08C110.772 33.672 111.796 32.312 112.82 31C113.844 29.656 114.772 28.44 115.604 27.352C116.436 26.264 117.076 25.4 117.524 24.76C117.332 24.952 116.82 25.352 115.988 25.96C115.156 26.536 114.132 27.256 112.916 28.12C111.7 28.952 110.404 29.864 109.028 30.856C107.652 31.816 106.324 32.792 105.044 33.784C103.764 34.744 102.66 35.64 101.732 36.472ZM119.108 35.32C118.34 34.936 117.348 34.696 116.132 34.6H116.42C116.868 34.6 117.364 34.648 117.908 34.744C118.452 34.84 118.852 35.032 119.108 35.32ZM105.38 35.896L109.508 35.416L109.7 35.176C107.716 35.432 106.276 35.672 105.38 35.896Z" fill="#F2860A"/>
</g>
</svg>
